<?xml version="1.0" encoding="utf-8"?>
<!-- Generator: Adobe Illustrator 27.3.1, SVG Export Plug-In . SVG Version: 6.00 Build 0)  -->
<svg version="1.1" id="Layer_1" xmlns="http://www.w3.org/2000/svg" xmlns:xlink="http://www.w3.org/1999/xlink" x="0px" y="0px"
	 viewBox="0 0 2000 2000" style="enable-background:new 0 0 2000 2000;" xml:space="preserve">
<style type="text/css">
	.st0{opacity:0.3;fill:#293657;enable-background:new    ;}
	.st1{fill:#EBECED;}
	.st2{fill:#FFFFFF;}
	.st3{fill:#2A3756;}
	.st4{fill:#527BEF;}
	.st5{fill:#1C263A;}
	.st6{fill:#EF5C00;}
	.st7{fill:#EDD600;}
	.st8{fill:#CCB027;}
	.st9{fill:#DDD322;}
	.st10{opacity:0.1;fill:#FFFFFF;enable-background:new    ;}
	.st11{fill:#1E1E1E;}
	.st12{fill:#FCCFB2;}
</style>
<path class="st0" d="M1793.7,1658c0,19-474.2,63.6-891.7,63.6s-611.6-36-611.6-55c0-44.6,338.5-34.4,756-34.4
	S1793.7,1639,1793.7,1658z"/>
<g>
	<path class="st1" d="M1112.4,953.8c-19.5,40.8-119.8,213-154,196.7s36.9-202.5,56.4-243.4s57.2-63.4,84.1-50.5
		C1125.9,869.4,1131.9,912.9,1112.4,953.8L1112.4,953.8z"/>
	<path class="st2" d="M1577.8,774.2c17.6,165.2-106.5,313.9-277.2,332.1c-170.7,18.2-323.4-100.9-341-266.1s106.5-313.8,277.2-332.1
		C1407.5,489.9,1560.2,609,1577.8,774.2z"/>
	<g>
		<path class="st2" d="M1346.7,717c-1.6,0.2-3.3,0.3-5.1,0.1c-32-3.7-60.7-19.6-80.7-44.8s-29.1-56.8-25.4-88.8l14.3-124.6
			c3.7-32,19.6-60.7,44.8-80.7c25.2-20,56.8-29,88.8-25.4c10.6,1.2,18.2,10.8,17,21.4s-10.8,18.2-21.4,17
			c-21.7-2.5-43.2,3.6-60.3,17.2c-17.1,13.6-28,33.1-30.5,54.8l-14.3,124.6c-2.5,21.8,3.6,43.2,17.2,60.3s33.1,28,54.8,30.5
			c10.6,1.2,18.2,10.8,17,21.4C1362,709,1355.1,715.7,1346.7,717L1346.7,717z"/>
		<g>
			<path class="st3" d="M1452.7,744.5c-1,75.2-96.8,134.9-213.9,133.4s-211.3-63.8-210.3-139s96.8-134.9,213.9-133.4
				C1359.5,607,1453.7,669.2,1452.7,744.5z"/>
			<g>
				<path class="st4" d="M1100.2,737.6c-0.1,6-5,10.7-10.9,10.7c-6-0.1-10.7-5-10.7-10.9c0.1-6,5-10.7,10.9-10.7
					C1095.5,726.7,1100.3,731.6,1100.2,737.6L1100.2,737.6z"/>
				<path class="st4" d="M1169.9,741.5c-0.1,6-5,10.7-10.9,10.7c-6-0.1-10.7-5-10.7-10.9c0.1-6,5-10.7,10.9-10.7
					S1169.9,735.6,1169.9,741.5L1169.9,741.5z"/>
				<path class="st4" d="M1150.1,717c-0.1,6-5,10.7-10.9,10.7c-6-0.1-10.7-5-10.7-10.9c0.1-6,5-10.7,10.9-10.7
					C1145.4,706.2,1150.1,711.1,1150.1,717z"/>
				<path class="st4" d="M1122.8,715.3c-0.1,6-5,10.7-10.9,10.7c-6-0.1-10.7-5-10.7-11c0.1-6,5-10.7,10.9-10.7
					C1118,704.4,1122.8,709.3,1122.8,715.3L1122.8,715.3z"/>
			</g>
			<g>
				<path class="st4" d="M1311,740.4c-0.1,6-5,10.7-10.9,10.7c-6-0.1-10.7-5-10.7-10.9s5-10.7,10.9-10.7S1311.1,734.4,1311,740.4z"
					/>
				<path class="st4" d="M1380.6,744.4c-0.1,6-5,10.7-10.9,10.7c-6-0.1-10.7-5-10.7-10.9c0.1-6,5-10.7,10.9-10.7
					C1375.9,733.5,1380.7,738.4,1380.6,744.4L1380.6,744.4z"/>
				<path class="st4" d="M1360.8,719.8c-0.1,6-5,10.7-10.9,10.7c-6-0.1-10.7-5-10.6-11s5-10.7,10.9-10.7
					C1356.1,709,1360.9,713.9,1360.8,719.8L1360.8,719.8z"/>
				<path class="st4" d="M1333.5,718.1c-0.1,6-5,10.7-10.9,10.7c-6-0.1-10.7-5-10.7-10.9s5-10.7,10.9-10.7
					C1328.8,707.2,1333.6,712.1,1333.5,718.1L1333.5,718.1z"/>
			</g>
		</g>
	</g>
	<g>
		<g>
			<path class="st5" d="M1315.9,1034.3c-96.7-49.7-209.7-108.7-284.3-146.6c1.4-1.8,2.9-4,4.1-6.6c1.3-2.6,2.2-5.1,2.7-7.4
				c75.7,35.7,191.6,88.8,290.2,134.8c-1.7,4-3.6,8.1-5.6,12.2C1320.7,1025.5,1318.3,1030,1315.9,1034.3L1315.9,1034.3z"/>
			<path class="st6" d="M1462,1089.9c-3.9,8-11.8,12.2-17.6,9.4c-33.7-16.5-79-39.5-128.6-65c2.4-4.3,4.8-8.8,7.1-13.5
				c2-4.1,3.9-8.2,5.6-12.2c50.5,23.5,96.4,45.2,130.1,61.7C1464.5,1073.1,1465.9,1081.9,1462,1089.9L1462,1089.9z"/>
		</g>
		<path class="st7" d="M989,850.1c13.2,6.5,30,14.5,49.4,23.6c-0.1,6.3-3.7,11.8-6.8,14c-19.2-9.7-35.8-18.1-49-24.5
			C978.1,860.9,984.5,847.9,989,850.1z"/>
		<path class="st8" d="M982.2,862.9c1.6,0.8,4.4-1.5,6.1-5.1c1.8-3.6,1.9-7.1,0.2-7.9c-1.6-0.8-4.4,1.5-6.1,5.1
			C980.7,858.6,980.6,862.1,982.2,862.9L982.2,862.9z"/>
		<path class="st9" d="M1339.6,1013.6l-14-6.5c-2.6,10.4-6.9,18.1-12.6,25.7l13.8,7.1C1333,1033.1,1337.2,1023.8,1339.6,1013.6
			L1339.6,1013.6z"/>
	</g>
	<path class="st1" d="M1487.9,956.2c-35.3,28.2-200.6,139.6-224.3,110c-23.6-29.6,121.4-166.3,156.7-194.5
		c35.3-28.2,79.1-32.2,97.7-8.9C1536.8,886.2,1523.3,928,1487.9,956.2L1487.9,956.2z"/>
</g>
<g>
	<g>
		<path class="st3" d="M913.5,1390.7c-38.3,8.1-97.5,13.7-164.2,14.5c-64,0.7-121.2-3.2-159.7-10l-10.2,259.4
			c0.2,22.1,78.8,39.1,175.5,38s174.9-19.8,174.7-41.9L913.5,1390.7L913.5,1390.7z"/>
		<path class="st6" d="M594.8,1292.6l-5.2,102.6c38.5,6.8,95.8,10.7,159.7,10c66.6-0.7,125.9-6.3,164.2-14.5l-7.4-101.5
			L594.8,1292.6L594.8,1292.6z"/>
	</g>
	<path class="st10" d="M790,1339.7l-1.8,351.8c24.4-1.3,46.9-3.8,66.6-7.2l-9.5-348.5C828.4,1337.6,809.8,1338.9,790,1339.7
		L790,1339.7z"/>
	<path class="st3" d="M1049.5,1297.1c0.4,37.7-133.1,69.7-298.2,71.5s-299.3-27.2-299.7-64.9c-0.4-37.7,133.1-69.7,298.2-71.5
		C914.9,1230.4,1049.1,1259.4,1049.5,1297.1L1049.5,1297.1z"/>
	<path class="st11" d="M905.3,1298.7c0.2,14.5-69,26.9-154.4,27.9c-85.4,0.9-154.8-10-155-24.5s69-26.9,154.4-27.9
		C835.7,1273.3,905.1,1284.2,905.3,1298.7z"/>
	<path class="st5" d="M905.3,1298.7c0.2,14.5-69,26.9-154.4,27.9c-85.4,0.9-154.8-10-155-24.5s69-26.9,154.4-27.9
		C835.7,1273.3,905.1,1284.2,905.3,1298.7z"/>
	<g>
		<path class="st2" d="M844.4,1320.2c6.7-0.9,13-2,18.7-3.1c15.6-89.2,42.7-258.6,51.4-299.8c6.8-32.1-11.9-72.7-44-79.4
			c-32.1-6.8-65.5,22.9-72.2,55c-9.7,45.9-16.2,256-25.2,333.2c6.9-0.2,13.6-0.6,20.1-0.9C800.4,1290.3,854.1,1259,844.4,1320.2
			L844.4,1320.2z"/>
		<path class="st2" d="M708.2,1320.9c0.4,1.8,0.7,3.5,0.9,5.1c6.5,0.2,13.1,0.4,19.9,0.5c-10.9-72.3-22.1-291-32.9-337.7
			c-7.4-32-41.4-60.9-73.3-53.5c-32,7.4-49.8,48.3-42.4,80.3c9.7,41.9,41.5,216.8,58.7,304.1c5.8,0.9,12,1.8,18.7,2.6
			C647.5,1267.6,700.2,1286.4,708.2,1320.9L708.2,1320.9z"/>
		<path class="st12" d="M859.6,989.7c-18.5-3.9-37.7,13.4-43.1,39c-7.3,34.7-16.1,261.7-23.4,296.5c18.8-1.1,36.1-2.8,51.3-4.9
			c9.7-61.2,32.4-246.2,39-277.5C888.8,1016.8,878.1,993.6,859.6,989.7L859.6,989.7z"/>
		<path class="st12" d="M678.6,1025c-6-25.8-25.5-42.3-43.9-38.1s-28.6,28.1-22.7,53.5c7.5,32.2,35.5,227.2,45.8,281.9
			c15.2,1.8,32.5,3,51.3,3.7c-0.2-1.7-0.5-3.3-0.9-5.1C700.2,1286.4,686.6,1059.5,678.6,1025L678.6,1025z"/>
	</g>
</g>
<g>
	<polygon class="st7" points="749.4,956.8 757.2,913.2 800.7,903 757.2,892.9 749.4,849.3 741.6,892.9 698.1,903 741.6,913.2 	"/>
	<polygon class="st7" points="721.9,801.6 728.5,764.8 765.3,756.2 728.5,747.6 721.9,710.7 715.3,747.6 678.5,756.2 715.3,764.8 	
		"/>
	<polygon class="st7" points="820.1,865.6 825.7,834.1 857.1,826.8 825.7,819.4 820.1,788 814.5,819.4 783,826.8 814.5,834.1 	"/>
</g>
</svg>
