<?xml version="1.0" encoding="utf-8"?>
<!-- Generator: Adobe Illustrator 26.3.1, SVG Export Plug-In . SVG Version: 6.00 Build 0)  -->
<svg version="1.1" id="Layer_1" xmlns="http://www.w3.org/2000/svg" xmlns:xlink="http://www.w3.org/1999/xlink" x="0px" y="0px"
	 viewBox="0 0 160.1 51" style="enable-background:new 0 0 160.1 51;" xml:space="preserve">
<style type="text/css">
	.st0{fill:#56B7E0;}
	.st1{fill:#FFFFFF;}
</style>
<g>
	<path class="st0" d="M41.2,42l-7.7-13.3l-3-5.2l-0.9,20.8c0,0.2-0.1,0.5-0.2,0.7c-0.2,0.4-0.6,0.4-0.8,0.2l0,0l-5.7-7.5L14,40.8
		l0,0c-0.3,0.1-0.6-0.1-0.6-0.6c0-0.3,0.1-0.5,0.2-0.7l13.3-22.3l-1.1-1.8c-2.2-3.7-7.5-3.7-9.7,0L8.4,28.7L0.8,42
		c-2.2,3.7,0.5,8.4,4.8,8.4H21h15.4C40.6,50.4,43.3,45.7,41.2,42z"/>
	<g>
		<path class="st1" d="M77.7,17.5c-1.2-1.2-2.8-2.2-4.8-2.9c-2-0.7-4.5-1.1-7.4-1.1c-2.7,0-5,0.3-6.9,1c-1.9,0.7-3.4,1.5-4.6,2.5
			s-2.1,2-2.6,3.1c-0.6,1.1-0.9,2-0.9,2.7c0,0.5,0.1,0.8,0.4,1.1c0.3,0.3,0.6,0.4,1.1,0.4h5.5c0.7,0,1.2-0.3,1.6-0.9
			c0.5-1.1,1.3-2,2.3-2.7c1-0.7,2.4-1,4.1-1c2.4,0,4,0.5,5,1.6c1,1.1,1.5,2.6,1.5,4.5v1.5l-9.5,1.4c-4.2,0.6-7.7,1.9-10.3,3.8
			c-2.6,1.9-3.9,4.5-3.9,7.7c0,2,0.6,3.8,1.7,5.4c1.1,1.6,2.7,2.9,4.6,3.8S58.6,51,61,51c2,0,3.7-0.2,5.2-0.7
			c1.5-0.5,2.7-1.1,3.7-1.9c1-0.8,1.8-1.6,2.4-2.4v2.7c0,0.5,0.1,0.9,0.5,1.2c0.3,0.3,0.7,0.5,1.2,0.5h5.6c0.5,0,0.9-0.2,1.2-0.5
			c0.3-0.3,0.5-0.7,0.5-1.2V26.9c0-1.8-0.3-3.5-0.8-5.1C79.8,20.1,78.9,18.7,77.7,17.5z M72,34.6c0,2.2-0.4,4.1-1.1,5.5
			c-0.8,1.5-1.8,2.5-3.1,3.2c-1.3,0.7-2.8,1-4.4,1c-1.1,0-2.1-0.2-3-0.5s-1.8-0.9-2.4-1.6s-0.9-1.6-0.9-2.6c0-1.3,0.7-2.5,2-3.4
			c1.3-0.9,3.4-1.6,6.1-2l6.9-1.1V34.6z"/>
		<path class="st1" d="M96.1,14.3h-5.8c-0.5,0-0.9,0.2-1.2,0.5c-0.3,0.3-0.5,0.7-0.5,1.2v32.7c0,0.5,0.2,0.9,0.5,1.2
			c0.3,0.3,0.7,0.5,1.2,0.5h5.8c0.5,0,0.9-0.2,1.2-0.5c0.3-0.3,0.5-0.7,0.5-1.2V15.9c0-0.5-0.2-0.9-0.5-1.2
			C97,14.4,96.6,14.3,96.1,14.3z"/>
		<path class="st1" d="M96.4,0h-6.3c-0.5,0-0.9,0.2-1.2,0.5c-0.3,0.3-0.5,0.7-0.5,1.2v5c0,0.5,0.2,0.9,0.5,1.2
			c0.3,0.3,0.7,0.5,1.2,0.5h6.3c0.5,0,0.9-0.2,1.2-0.5c0.3-0.3,0.5-0.7,0.5-1.2v-5c0-0.5-0.2-0.9-0.5-1.2C97.3,0.2,96.9,0,96.4,0z"
			/>
		<path class="st1" d="M127.4,14.3h-2.8c-2.2,0-4.2,0.4-5.9,1.2c-1.7,0.8-3.1,1.9-4.1,3.4V16c0-0.5-0.2-0.9-0.5-1.2
			c-0.3-0.3-0.8-0.5-1.2-0.5h-5.6c-0.5,0-0.9,0.2-1.2,0.5c-0.3,0.3-0.5,0.7-0.5,1.2v32.6c0,0.5,0.2,0.9,0.5,1.2
			c0.3,0.3,0.7,0.5,1.2,0.5h6c0.5,0,0.9-0.2,1.2-0.5c0.3-0.3,0.5-0.7,0.5-1.2V29.6c0-2.2,0.6-3.9,1.8-5.2c1.2-1.2,2.9-1.8,5.2-1.8
			h5.4c0.5,0,0.9-0.2,1.2-0.5c0.3-0.3,0.5-0.7,0.5-1.2v-5c0-0.5-0.2-0.9-0.5-1.2C128.3,14.4,127.9,14.3,127.4,14.3z"/>
		<path class="st1" d="M159.7,43.2c-0.3-0.3-0.7-0.5-1.2-0.5h-4.8c-1.7,0-2.8-0.5-3.5-1.6c-0.7-1.1-1-2.5-1-4.4v-15h8.7
			c0.5,0,0.9-0.2,1.2-0.5c0.3-0.3,0.5-0.7,0.5-1.2v-3.9c0-0.5-0.2-0.9-0.5-1.2c-0.3-0.3-0.7-0.5-1.2-0.5h-8.7V2.8
			c0-0.5-0.2-0.9-0.5-1.2c-0.3-0.3-0.7-0.5-1.2-0.5h-5.6c-0.5,0-0.9,0.2-1.2,0.5c-0.3,0.3-0.5,0.7-0.5,1.2v11.5h-5.5
			c-0.5,0-0.9,0.2-1.2,0.5c-0.3,0.3-0.5,0.7-0.5,1.2v3.9c0,0.5,0.2,0.9,0.5,1.2c0.3,0.3,0.7,0.5,1.2,0.5h5.5v15.7
			c0,2.9,0.5,5.3,1.4,7.2c0.9,1.9,2.3,3.4,4.2,4.3c1.9,1,4.2,1.5,7,1.5h5.6c0.5,0,0.9-0.2,1.2-0.5c0.3-0.3,0.5-0.7,0.5-1.2v-4.3
			C160.1,43.9,160,43.5,159.7,43.2z"/>
	</g>
</g>
</svg>
