<?xml version="1.0" encoding="utf-8"?>
<!-- Generator: Adobe Illustrator 26.3.1, SVG Export Plug-In . SVG Version: 6.00 Build 0)  -->
<svg version="1.1" id="Layer_1" xmlns="http://www.w3.org/2000/svg" xmlns:xlink="http://www.w3.org/1999/xlink" x="0px" y="0px"
	 viewBox="0 0 1283.5 1211.2" style="enable-background:new 0 0 1283.5 1211.2;" xml:space="preserve">
<style type="text/css">
	.st0{opacity:0.3;fill:#293657;enable-background:new    ;}
	.st1{fill:#FFFFFF;}
	.st2{fill:#F2F2F2;}
	.st3{fill:#2A3756;}
	.st4{fill:#4E5EAF;}
	.st5{fill:#EF5C00;}
	.st6{fill:#E2857E;}
	.st7{fill:#EDD600;}
	.st8{opacity:0.3;fill:#D3D1D1;enable-background:new    ;}
	.st9{fill:#527BEF;}
	.st10{fill:#EBECED;}
</style>
<g>
	<path class="st0" d="M1283.5,1164.2c0,26-354.1,47-708.5,47s-575-21.1-575-47s220.5-47,575-47S1283.5,1138.2,1283.5,1164.2z"/>
	<g>
		<g>
			<polygon class="st1" points="355.2,1160.2 433.8,617.7 453.4,620.5 375.3,1160.2 			"/>
			<polygon class="st1" points="915.8,1160.2 837.7,620.5 857.3,617.7 935.9,1160.2 			"/>
			<rect x="635.6" y="619.1" class="st1" width="19.8" height="506"/>
		</g>
		<g>
			<g>
				<rect x="377.8" y="120.6" class="st2" width="541" height="491"/>
				<rect x="377.8" y="102.6" class="st3" width="541" height="20"/>
				<rect x="377.8" y="608.6" class="st3" width="541" height="21"/>
			</g>
			<g>
				<g>
					<g>
						<rect x="528.4" y="263" class="st4" width="89.8" height="10"/>
						<rect x="528.4" y="282.8" class="st4" width="89.8" height="10"/>
						<rect x="528.4" y="302.5" class="st4" width="89.8" height="10"/>
						<rect x="528.4" y="322.3" class="st4" width="56.5" height="10"/>
					</g>
					<g>
						<path class="st3" d="M461.8,313v-41.5c-22.9,0-41.5,18.6-41.5,41.5s18.6,41.5,41.5,41.5s41.5-18.6,41.5-41.5
							c0-6.9-1.7-13.5-4.7-19.2L461.8,313L461.8,313z"/>
						<path class="st5" d="M486.8,263.7c-6.1-3.6-13.2-5.6-20.8-5.6v41.5L486.8,263.7L486.8,263.7z"/>
						<path class="st4" d="M490,268.5l-20.8,35.8l36.7-19.2C502.3,278.2,496.8,272.4,490,268.5L490,268.5z"/>
					</g>
				</g>
				<g>
					<rect x="714.9" y="460.3" class="st5" width="163" height="17.7"/>
					<rect x="714.9" y="491.1" class="st4" width="135.4" height="10"/>
					<rect x="714.9" y="510.8" class="st4" width="68.9" height="10"/>
					<rect x="714.9" y="530.4" class="st4" width="135.4" height="10"/>
					<rect x="714.9" y="550.1" class="st4" width="118.8" height="10"/>
					<rect x="714.9" y="570.4" class="st4" width="135.4" height="10"/>
				</g>
				<g>
					<g>
						<path class="st4" d="M758.4,352.2c-12.8,0-23.2-10.4-23.2-23.2s10.4-23.2,23.2-23.2s23.2,10.4,23.2,23.2
							S771.2,352.2,758.4,352.2z M758.4,310.8c-10,0-18.2,8.2-18.2,18.2s8.2,18.2,18.2,18.2s18.2-8.2,18.2-18.2
							S768.5,310.8,758.4,310.8z"/>
						<path class="st4" d="M758.4,378.6c-27.2,0-49.2-22.2-49.2-49.6s22.1-49.6,49.2-49.6s49.2,22.2,49.2,49.6
							S785.6,378.6,758.4,378.6z M758.4,284.5c-24.4,0-44.3,20-44.3,44.6s19.9,44.6,44.3,44.6s44.3-20,44.3-44.6
							S782.9,284.5,758.4,284.5z"/>
						<path class="st4" d="M758.4,401.3c-39.8,0-72.2-32.4-72.2-72.2s32.4-72.2,72.2-72.2s72.2,32.4,72.2,72.2
							S798.2,401.3,758.4,401.3z M758.4,261.8c-37.1,0-67.3,30.2-67.3,67.3s30.2,67.3,67.3,67.3s67.3-30.2,67.3-67.3
							S795.5,261.8,758.4,261.8z"/>
						<path class="st4" d="M758.4,429.3c-55.3,0-100.3-45-100.3-100.3s45-100.3,100.3-100.3s100.3,45,100.3,100.3
							S813.7,429.3,758.4,429.3z M758.4,233.7c-52.6,0-95.3,42.8-95.3,95.3s42.8,95.3,95.3,95.3s95.3-42.8,95.3-95.3
							S811,233.7,758.4,233.7L758.4,233.7z"/>
					</g>
					<g>
						<path class="st4" d="M758.4,358c-16,0-28.9-13-28.9-28.9H746c0,6.8,5.6,12.4,12.4,12.4V358L758.4,358z"/>
						<path class="st4" d="M808.3,352.4l-15-6.9c2.4-5.2,3.6-10.7,3.6-16.4c0-21.4-17.3-38.8-38.5-38.8c-6.4,0-12.8,1.6-18.4,4.7
							l-7.9-14.5c8-4.4,17.2-6.8,26.4-6.8c30.3,0,55,24.8,55,55.3C813.5,337.2,811.7,345.1,808.3,352.4L808.3,352.4z"/>
						<path class="st4" d="M704.3,299.8l-14.5-7.9c13.7-25.2,40-40.9,68.7-40.9c22.6,0,44,9.8,58.8,26.8l-12.4,10.8
							c-11.7-13.4-28.6-21.1-46.4-21.1C735.8,267.6,715.1,279.9,704.3,299.8L704.3,299.8z"/>
						<path class="st4" d="M758.4,435.1v-16.5c49.4,0,89.5-40.2,89.5-89.5s-40.2-89.5-89.5-89.5v-16.5c58.5,0,106,47.6,106,106
							S816.9,435.1,758.4,435.1L758.4,435.1z"/>
					</g>
				</g>
				<g id="_3">
					<g>
						<rect x="621.8" y="518.6" class="st5" width="38" height="65"/>
						<rect x="569.8" y="478.6" class="st3" width="38" height="105"/>
						<rect x="520.8" y="451.6" class="st3" width="37" height="132"/>
						<rect x="469.8" y="518.6" class="st3" width="40" height="65"/>
						<rect x="419.8" y="414.6" class="st5" width="38" height="169"/>
					</g>
				</g>
			</g>
		</g>
		<g>
			<path class="st3" d="M445,189.6v-13.2c0-5.5,0.8-11.6,0.8-11.6h-0.2l-6.3,24.8h-8.6l-6.4-24.8h-0.2c0,0,0.9,6,0.9,11.5v13.3
				h-10.2V153h15.6l5.2,21.1h0.2l5.1-21.1h15v36.6H445L445,189.6z"/>
			<path class="st3" d="M488.6,170.1v11c0,1.2,0.5,2.1,1.6,2.1h1.8v6.1c0,0-1.8,1.1-5.2,1.1c-4,0-6.4-1.4-7.3-3.5
				c-2.2,1.9-5.1,3.5-9.7,3.5c-5.5,0-9.3-2-9.3-7.9c0-8.4,6.7-10,18.2-10v-1.4c0-2.3-1.7-3.3-3.8-3.3c-1.8,0-3.8,0.6-3.8,2.5v0.2
				h-9.8c0-0.3,0-0.5,0-0.7c0-5.2,4.7-8.7,13.8-8.7C482.2,160.9,488.6,163.1,488.6,170.1L488.6,170.1z M470.4,181
				c0,2.2,1.7,2.7,3.4,2.7c2.5,0,4.9-1.6,4.9-3.9v-2.4C472.7,177.4,470.3,178.9,470.4,181L470.4,181z"/>
			<path class="st3" d="M523.4,172.9h-9.6c0-3.3-1.8-4.8-4.9-4.8c-3.5,0-4.9,2.3-4.9,6v3c0,3.7,1.5,6,5.1,6c3.2,0,5.1-1.4,5.1-4.9
				h9.2c0,8.6-6.5,12.1-14.5,12.1c-9,0-14.8-4.8-14.8-14.7s5.8-14.7,14.8-14.7C516.9,160.9,523.4,164.3,523.4,172.9L523.4,172.9z"/>
			<path class="st3" d="M545.8,160.9c6.2,0,9.2,3.9,9.2,10.5v18.2h-9.9v-16.9c0-2.3-1.2-4-3.3-4c-2.5,0-4.1,2-4.1,4.4v16.5h-9.9V151
				h9.9v13.4C539.7,162.2,542.7,160.9,545.8,160.9L545.8,160.9z"/>
			<path class="st3" d="M561.3,158.2V151h9.9v7.2H561.3z M561.3,189.6v-28.1h9.9v28.1H561.3z"/>
			<path class="st3" d="M604.9,171.4v18.2H595v-16.9c0-2.3-1.2-4-3.3-4c-2.5,0-4.1,2-4.1,4.4v16.5h-9.9v-28h8.1l0.7,4.3
				c2-3,5.6-4.9,9.4-4.9C602,160.9,605,164.8,604.9,171.4L604.9,171.4z"/>
			<path class="st3" d="M639.4,175.6v1.8h-19.8c0,3.9,1.5,6.1,5.3,6.1c3.5,0,4.8-1.8,4.8-4.1h9.6c0,6.7-4.8,10.9-14.3,10.9
				s-15.4-4.6-15.4-14.7s5.8-14.7,14.8-14.7C634,160.9,639.4,165.5,639.4,175.6L639.4,175.6z M619.7,172.4h9.7
				c0-2.9-1.7-4.7-4.4-4.7C621.6,167.7,620,169.5,619.7,172.4L619.7,172.4z"/>
			<path class="st3" d="M661.1,189.6V151h9.9v38.6H661.1z"/>
			<path class="st3" d="M705.9,175.6v1.8h-19.8c0,3.9,1.5,6.1,5.3,6.1c3.5,0,4.8-1.8,4.8-4.1h9.6c0,6.7-4.8,10.9-14.3,10.9
				s-15.4-4.6-15.4-14.7s5.8-14.7,14.8-14.7C700.5,160.9,705.9,165.5,705.9,175.6L705.9,175.6z M686.2,172.4h9.7
				c0-2.9-1.7-4.7-4.4-4.7C688.1,167.7,686.6,169.5,686.2,172.4L686.2,172.4z"/>
			<path class="st3" d="M737.4,170.1v11c0,1.2,0.5,2.1,1.6,2.1h1.8v6.1c0,0-1.8,1.1-5.2,1.1c-4,0-6.4-1.4-7.3-3.5
				c-2.2,1.9-5.1,3.5-9.7,3.5c-5.5,0-9.3-2-9.3-7.9c0-8.4,6.7-10,18.2-10v-1.4c0-2.3-1.7-3.3-3.8-3.3c-1.8,0-3.8,0.6-3.8,2.5v0.2
				h-9.8c-0.1-0.3-0.1-0.5-0.1-0.7c0-5.2,4.7-8.7,13.8-8.7C731,160.9,737.4,163.1,737.4,170.1L737.4,170.1z M719.2,181
				c0,2.2,1.7,2.7,3.4,2.7c2.6,0,4.9-1.6,4.9-3.9v-2.4C721.6,177.4,719.1,178.9,719.2,181L719.2,181z"/>
			<path class="st3" d="M763,161.5v8.9h-3.2c-4.3,0-5.8,2.5-5.8,6.8v12.4h-9.9v-28.1h8.1l0.7,4.3c1.2-3.3,4.1-5,7.2-5
				C761.9,160.9,763,161.5,763,161.5L763,161.5z"/>
			<path class="st3" d="M796,171.4v18.2h-9.9v-16.9c0-2.3-1.2-4-3.3-4c-2.5,0-4.1,2-4.1,4.4v16.5h-9.9v-28h8.1l0.7,4.3
				c2.1-3,5.6-4.9,9.4-4.9C793.1,160.9,796,164.8,796,171.4L796,171.4z"/>
			<path class="st3" d="M802.3,158.2V151h9.9v7.2H802.3z M802.3,189.6v-28.1h9.9v28.1H802.3z"/>
			<path class="st3" d="M846,171.4v18.2h-9.9v-16.9c0-2.3-1.2-4-3.3-4c-2.5,0-4.1,2-4.1,4.4v16.5h-9.9v-28h8.1l0.7,4.3
				c2.1-3,5.6-4.9,9.4-4.9C843,160.9,846,164.8,846,171.4L846,171.4z"/>
			<path class="st3" d="M875.5,163.9c1.9,1.5,3.1,3.7,3.1,6.1c0,6.3-5.2,9-11.1,9h-3.8c-2.3,0-3.1,0.6-3.1,1.5s0.6,1.7,3.1,1.7h9
				c6.1,0,8.9,3.8,8.9,9c0,6.3-5.2,9.6-11.1,9.6h-14.7c-3.6,0-6.6-3-6.6-6.9c0-2.9,2-5.2,4.2-6.3c-1.6-1.2-2.6-2.9-2.6-5
				c0-2.8,2.2-5.3,5-6c-2.4-1.7-4.2-4-4.2-6.7c0-7,6.2-9.1,13.6-9.1c2,0,3.2,0.1,4.3,0.3c3.9-2.6,3.9-5,3.9-5h8.2
				C881.6,160.8,879.3,162.8,875.5,163.9L875.5,163.9z M858.6,192.2c0,1.7,1.2,2.7,2.6,2.7h7.8c1.4,0,2.7-1,2.7-2.7
				s-1.2-2.6-2.7-2.6h-7.8C859.7,189.6,858.6,190.5,858.6,192.2L858.6,192.2z M861.3,169.9c0,2.4,1.4,3.5,3.7,3.5s3.8-1.1,3.8-3.5
				s-1.5-3.5-3.8-3.5C862.9,166.4,861.3,167.6,861.3,169.9z"/>
		</g>
	</g>
	<g id="_02_3_4">
		<g id="_02_Standing">
			<g id="leg">
				<path class="st3" d="M273.7,534.4c0,0,44.9,287.9,47.3,310.7c2.4,22.8-17.7,74.9,10,233.3l36.9,1.8
					c1.9-68.4,5.1-188.4,5.6-216.2c0.6-39.5,8-248.7,8-248.7S296.3,479.6,273.7,534.4L273.7,534.4z"/>
				<g>
					<polygon class="st3" points="444.4,1173.4 330.7,1177.1 330.7,1124.3 381.5,1124.3 444.4,1153.7 					"/>
					<polygon class="st1" points="335.9,1124.3 373.9,1124.3 369.3,1096.9 334,1099.7 					"/>
					<polygon class="st6" points="369.3,1096.9 334,1099.7 331,1078.4 368,1080.2 					"/>
				</g>
			</g>
			<g id="hoodie">
				<g id="head">
					<path class="st6" d="M281.5,76.3c24-6.1,57.2-1.2,64,39c4.8,28.2,10.5,77.1-7.2,83.4c-7.9,2.8-38,0-38,0l6.3,33.5h-55.3l9.1-48
						C260.4,184.1,202.4,96.3,281.5,76.3L281.5,76.3z"/>
					<path class="st3" d="M328,81.5l-36.3,53.3c-6.4-12-16.2-8.9-21.3,0.9c-6.3,12,7.9,22.2,6.6,26.3c-1.4,4-13.4,21.6-16.6,22.1
						c-3.2,0.4-63.2-26.9-35.6-95.6C237.5,56.8,292.2,45.7,328,81.5L328,81.5z"/>
					<path class="st3" d="M288.8,28.2c4.4,19.1-4.7,33.7-22,37.7s-28.1-6.6-32.6-25.6c-4.4-19,1.4-35.5,18.7-39.5
						C270.3-3.2,284.4,9.1,288.8,28.2L288.8,28.2z"/>
				</g>
				<path class="st7" d="M347.2,224.3l-200.3-42.7c0,0-34.7,108.1,51.2,113.2c51.4,3,109.7-11.5,136.1-32.7
					C352,247.8,347.2,224.3,347.2,224.3L347.2,224.3z"/>
			</g>
		</g>
		<g id="_02_Front">
			<g id="leg-2">
				<path class="st3" d="M178.4,610.4c0,0,13.4,92.1,18.1,211.5c4.1,104.7-18.1,105.2,0.8,252.4h36c1.6-96.7,3.9-96.5,43.2-489
					C276.6,585.3,200.4,555.4,178.4,610.4L178.4,610.4z"/>
				<polygon class="st1" points="230.1,1143.5 196.5,1133.6 197.3,1095.4 231.6,1095.4 				"/>
				<polygon class="st6" points="197.3,1095.4 231.6,1095.4 233.3,1074.3 197.3,1074.3 				"/>
				<polygon class="st3" points="241.1,1180.1 182.5,1180.1 182.5,1165.3 196.5,1123.5 231.6,1123.5 241.1,1165.3 				"/>
			</g>
			<g id="hoodie-2">
				<path class="st7" d="M192.5,250.1c-12.1,83.6-32.9,406.1-32.9,406.1c40,42.9,234.6,1.7,234.6,1.7s-14.4-281.3-43.8-405.3
					C342.3,218.5,208.3,203.7,192.5,250.1L192.5,250.1z"/>
			</g>
		</g>
		<path class="st7" d="M182.5,267.7c0,0-104.3,160.9-80,211.5S221.6,550,221.6,550l-9.8-255L182.5,267.7L182.5,267.7z"/>
		<path class="st8" d="M170,287.8c0,0,50.8,26.2,119.5-7.9C289.5,279.9,221.6,344.6,170,287.8L170,287.8z"/>
		<g id="hand">
			<polygon class="st6" points="546.9,365.1 559.8,337 542.3,326.2 524.1,347.3 			"/>
			<path class="st7" d="M341.7,232.8c0,0,48.1,29.4,80.9,174c3.7,16.2,13.2,23.8,19,19c28.2-23.7,82.5-78.4,82.5-78.4l26.5,19.4
				c0,0-143.8,281.8-214.9,14.2C325.7,342.8,341.7,232.9,341.7,232.8L341.7,232.8z"/>
			<path class="st6" d="M548.9,298.4c-12.5,16.5-14.3,36.1-4,43.9c3,2.3,6.7,3.2,10.7,3.1c4-0.1,12.5-14.3,15.7-20.8
				c1.6-3.3,3.8-6.7,6.5-10c5.8-6.9,12.7-11.6,18.8-13.4c0.7-8-1.4-14.8-6.5-18.7C579.8,274.8,561.4,281.9,548.9,298.4z"/>
		</g>
	</g>
	<g>
		<g>
			<path class="st1" d="M1127.8,383.3c-0.7-0.1-1.3-0.2-2-0.5c-12.1-4.9-21.6-14.2-26.7-26.2s-5.3-25.3-0.4-37.4l18.9-47.1
				c4.9-12.1,14.2-21.6,26.2-26.7s25.3-5.3,37.4-0.4c4,1.6,6,6.2,4.3,10.2c-1.7,4-6.2,6-10.2,4.3c-8.2-3.3-17.2-3.2-25.4,0.3
				c-8.2,3.5-14.5,9.9-17.8,18.2l-18.9,47.1c-3.3,8.2-3.2,17.2,0.3,25.4s9.9,14.5,18.2,17.8c4,1.6,6,6.2,4.3,10.2
				C1134.6,381.8,1131.2,383.7,1127.8,383.3L1127.8,383.3z"/>
			<g>
				<g>
					<path class="st1" d="M1081,277.6c-34.1,0-64.9,13.7-86.9,35.7c37.7,10,63.8,35.3,60.7,61.6c-3.6,30.2-44.8,50.2-91.8,44.5
						c-0.1,0-0.1,0-0.2,0c11.7,52.8,60.2,92.4,118.3,92.4c66.8,0,121-52.4,121-117.1S1147.8,277.6,1081,277.6L1081,277.6z"/>
					<path class="st3" d="M1054.7,374.8c3.2-26.2-22.9-51.6-60.7-61.6c-21.1,21.1-34.1,49.8-34.1,81.4c0,8.5,0.9,16.7,2.7,24.7
						c0.1,0,0.1,0,0.2,0C1010,425,1051.1,405,1054.7,374.8L1054.7,374.8z"/>
				</g>
				<g>
					<path class="st9" d="M988.7,365.2c-0.3,2.4-2.5,4.1-4.9,3.8s-4.1-2.5-3.8-4.9c0.3-2.4,2.5-4.1,4.9-3.8
						C987.3,360.7,989,362.8,988.7,365.2z"/>
					<path class="st9" d="M1016.6,369.8c-0.3,2.4-2.5,4.1-4.9,3.8s-4.1-2.5-3.8-4.9c0.3-2.4,2.5-4.1,4.9-3.8
						C1015.2,365.3,1016.9,367.4,1016.6,369.8z"/>
					<path class="st9" d="M1009.7,359.1c-0.3,2.4-2.5,4.1-4.9,3.8s-4.1-2.5-3.8-4.9c0.3-2.4,2.5-4.1,4.9-3.8
						S1010,356.7,1009.7,359.1z"/>
					<path class="st9" d="M998.7,357.2c-0.3,2.4-2.5,4.1-4.9,3.8s-4.1-2.5-3.8-4.9c0.3-2.4,2.5-4.1,4.9-3.8S999,354.8,998.7,357.2z"
						/>
				</g>
			</g>
		</g>
		<path class="st10" d="M1125.1,443.9c7.4,16.7,34.2,92.9,20.2,99.1s-52.7-64.6-60.2-81.3c-7.4-16.7-4.5-34.3,6.5-39.2
			C1102.7,417.6,1117.7,427.1,1125.1,443.9L1125.1,443.9z"/>
	</g>
</g>
</svg>
