<?xml version="1.0" encoding="utf-8"?>
<!-- Generator: Adobe Illustrator 26.3.1, SVG Export Plug-In . SVG Version: 6.00 Build 0)  -->
<svg version="1.1" id="Layer_1" xmlns="http://www.w3.org/2000/svg" xmlns:xlink="http://www.w3.org/1999/xlink" x="0px" y="0px"
	 viewBox="0 0 1229.8 1106.1" style="enable-background:new 0 0 1229.8 1106.1;" xml:space="preserve">
<style type="text/css">
	.st0{fill:#FFFFFF;}
	.st1{opacity:0.3;fill:#293657;enable-background:new    ;}
	.st2{fill:#151C28;}
	.st3{fill:#BA9E8C;}
	.st4{fill:#C6BDBD;}
	.st5{fill:#F6F4F4;}
	.st6{fill:#4D5CB0;}
	.st7{fill:#405296;}
	.st8{fill:#967B6D;}
	.st9{fill:#958682;}
	.st10{fill:#D4DBDF;}
	.st11{fill:#B1A6A2;}
	.st12{opacity:0.79;}
	.st13{fill:#10161E;}
	.st14{fill:#527BEF;}
	.st15{fill:#DBD2D2;}
</style>
<g>
	<path class="st0" d="M787,542.8c0,0,154-3.4,181.6,11.2c27.5,14.6-25,123.1-25,137.7s-25,70.6-20.7,86.9s16.3,180.7,11.2,194.5
		c-5.2,13.8-94.7,27.5-147.2,15.5S603.6,878.4,603.6,878.4L787,542.8L787,542.8z"/>
	<path class="st1" d="M1033,1000.8c0,29.1,21.9,97.5-262.2,72.5C446.6,1044.7,0,1029.9,0,1000.8s231.2-52.6,516.5-52.6
		S1033,971.8,1033,1000.8L1033,1000.8z"/>
	<g>
		<g>
			<path id="hair" class="st2" d="M672.1,455.4c112.4-155-31.7-179.2-102.7-328.4c-43.7-12.7-159.2,40.1-161.9,88.2
				C393.1,470.1,528.7,382.8,646,458.7C709.6,386.2,640.2,499.4,672.1,455.4L672.1,455.4z"/>
			<path class="st3" d="M486.9,378.5c0,0,3.6-6.4,0-28.6s-8.5-72.6-8.5-72.6l81.3-30.8c0,0,11.4,97,31.4,111.3s-42.8,42.8-42.8,42.8
				L486.9,378.5L486.9,378.5z"/>
			<path class="st4" d="M488.4,365.1c0,0,20.6,23.3,52,11.2s37-43.2,37-43.2s109.7-9.4,146.6,23.2
				c55.4,48.8,103.6,222.1,106.4,253.6c2.9,31.4,0.7,90-12.1,106.4c-12.9,16.4-37.1,32.1-37.1,32.1s20.7,53.6-25.7,78.6
				c-46.4,25-380.7-109.3-380.7-109.3s-12.9-52.8,7.1-85.7s-11.4-137.1-11.4-137.1s5-42.1,23.6-61.4
				C412.6,414.2,488.4,365.1,488.4,365.1L488.4,365.1z"/>
			<g>
				<path class="st5" d="M576.2,424.2l-6.4-17.1c0,0-83.6,33.6-102.1,45.7c-18.6,12.1-57.8,43.6-57.8,43.6l94.3,9.3L576.2,424.2
					L576.2,424.2z"/>
				<path class="st0" d="M266.2,414.2l31.4-18.6c0,0,72.1,38.6,92.1,52.1s37.1,48.6,37.1,48.6l-66.4-11.4L266.2,414.2L266.2,414.2z"
					/>
				<path class="st0" d="M581.2,414.9l26.2,10.4l-166.2,76l-22.1-6.4C419,494.9,481.2,446.3,581.2,414.9L581.2,414.9z"/>
				<polygon class="st6" points="261.2,407 409.7,489.2 441.9,493.5 611.9,419.2 649.7,612 471.9,680.6 440.5,680.6 294,615.6 				
					"/>
				<polygon class="st7" points="441.9,493.5 467.4,680.2 438.1,681.8 409.7,489.2 				"/>
			</g>
			<g>
				<path class="st3" d="M489.7,642.7c0,0,20.7-12.9,25.7-16.4s9.3-9.3,0-10.7s-64.3,11.4-69.3,13.6s-8.6,24.3-8.6,24.3l-27.9,52.9
					l82.1,5.7c0,0,27.9-15.7,29.3-21.4c1.4-5.7,0-14.3,0-14.3s0-11.4-2.9-16.4s7.9-11.4,7.9-11.4s-2.1-12.1-7.9-12.1
					S489.7,642.7,489.7,642.7L489.7,642.7z"/>
				<path class="st8" d="M467.6,652l-4.3-5.9c0.1,0,23.1-3.1,23.1-3.1l3.3-0.2C473.8,649,467.8,651.9,467.6,652L467.6,652z"/>
			</g>
			<g>
				<path class="st3" d="M754.7,621.3c0,0-55.7-42.1-61.4-47.1c-5.7-5-28.6-27.1-35.7-32.9c-7.1-5.7-30.7-14.3-44.3-16.4
					c-13.6-2.1-40.7,0.7-42.8,7.1s9.3,12.1,15.7,12.1s22.1,0.7,22.1,0.7l16.4,9.3c0,0-23.6,2.1-32.1,0.7c-8.6-1.4-53.6,2.1-58.6,4.3
					s-13.6,15.7,0,16.4s40,0,40,0l27.1,2.9l-34.3,2.9c0,0-23.6-2.9-32.9,0s-10.7,9.3,0,12.9s19.3,9.3,19.3,9.3s15,5,18.6,6.4
					s38.6,12.9,44.3,14.3c5.7,1.4,20,8.6,29.3,8.6h21.4c0,0,43.1,45.9,57.8,57.8C739.4,702.5,773.3,658.4,754.7,621.3L754.7,621.3z"
					/>
				<polygon class="st8" points="603.9,606.7 562.1,602.3 558.5,600.9 609.6,600.9 				"/>
			</g>
		</g>
		<g>
			<path class="st9" d="M261.9,683c0,0-24.6,1.3-27.8,9.1c-6.6,16.4,47,4.9,47,4.9L261.9,683L261.9,683z"/>
			<g>
				<path class="st3" d="M512.8,926.3c0,0-42.6,13-38.3,66.5l160.4,13.7l135.9,23.8l-102.6-99L512.8,926.3L512.8,926.3z"/>
				<path class="st0" d="M559,833.1c0,0-49.9,81.7-73.7,93.2c0,0-206-41.9-253.7-61.4s-106.2-41.9-86-102.6s50.6-71.6,96.1-71.6
					s380.9-0.7,380.9-0.7s106.6,4,135.9,65.8c31.8,67.2,12.3,146.7-31.1,158.3C698.2,921.9,559,833.1,559,833.1L559,833.1z"/>
				<path class="st0" d="M223.7,828.8c0,0-52,3.6-82.4,20.2c-30.3,16.6-49.9,55.7-36.9,89.6s21.7,51.3,100.5,54.2
					c78.8,2.9,184.3,5.1,184.3,5.1l91.8,5.1l99.7-91.8l-114.2-61.4L223.7,828.8L223.7,828.8z"/>
				<path class="st10" d="M433.8,914.6c-1.3-0.3-130.5-30.8-245.1-75.2l1.3-3.3c114.3,44.3,243.3,74.7,244.6,75L433.8,914.6
					L433.8,914.6z"/>
			</g>
			<g>
				<path class="st11" d="M261.9,680.9c-2.2,0.1-4.6,3-5.3,4.5c-0.8,1.6,1.2,1.7,3.2,2.8c2.3,0.3,4.5,1,7,1.8
					c2.2,0.7,3.3,4.9,5.7,5.9c2.2,0.9,4.3,1.8,6.6,3c2.1,1.1,5.1,0.7,7.2,2c2,1.2,4,2.7,6.1,4.1c2,1.3,2.6,4.8,4.6,6.2
					c2,1.4,6.2-0.4,8.3,1c1.9,1.4,3.2,3.8,5.2,5.3c1.9,1.5,2.4,4.8,4.3,6.3c1.9,1.5,3.8,3,5.7,4.6c1.8,1.6,4.8,1.8,6.7,3.4
					c1.8,1.6,2.3,4.7,4.1,6.4c1.8,1.6,3.4,3.5,5.2,5.2c1.8,1.6,3.5,3.3,5.4,5c1.8,1.7,4.7,2.1,6.5,3.8c1.8,1.7,5.5,1.2,7.3,3
					c1.8,1.7,0.8,6.2,2.6,7.9c1.7,1.7,3.4,3.5,5.1,5.2c1.7,1.7,4.5,2.3,6.3,4.1c1.7,1.7,2,4.8,3.8,6.6c1.7,1.7,4.5,2.4,6.2,4.2
					c1.7,1.8,4,2.9,5.7,4.7c1.7,1.8,4.8,2.2,6.5,3.9c1.7,1.8,1.5,5.3,3.2,7.1c1.7,1.8,3,3.9,4.7,5.7c1.7,1.8,3.9,3.1,5.5,4.9
					c1.7,1.8,1.9,4.9,3.6,6.7c1.7,1.8,3.8,3.1,5.5,4.9c1.6,1.8,6.1,1.1,7.7,2.9c1.6,1.8,2.8,4,4.5,5.8s1.8,5,3.4,6.8
					c1.6,1.8,2.2,4.5,3.9,6.4c1.6,1.8,5.2,1.9,6.8,3.7c1.6,1.8,2.8,4,4.4,5.9c1.6,1.8,2,4.8,3.6,6.6s5.4,1.8,7,3.6
					c1.6,1.8,1.7,5.1,3.3,6.9c1.6,1.8,5,2.1,6.6,4s0,6.5,1.6,8.3c1.6,1.9,3,3.9,4.6,5.8s5.1,2.1,6.7,4s2.9,4,4.5,5.8
					c1.6,1.9,2.3,4.5,3.9,6.3c1.6,1.9,4.4,2.7,5.9,4.6c1.6,1.9,2.5,4.3,4.1,6.2c1.6,1.9,4.8,2.3,6.4,4.2c1.6,1.9,2.9,4,4.5,5.8
					c1.6,1.9,4.2,2.9,5.8,4.8c1.6,1.9,1.7,5,3.3,6.8c1.6,1.9,2.4,4.4,4,6.2c1.6,1.9,3.1,3.8,4.7,5.7c1.6,1.9,1.8,4.9,3.4,6.8
					s6.7,0.8,8.2,2.6c1.6,1.9,1.8,5,3.3,6.8c1.6,1.9,3.2,3.8,4.7,5.6c1.6,1.9,3.1,3.8,4.7,5.6c1.6,1.9,1.5,5.2,3.1,7
					c1.7,1.9,6.7,0.8,8.2,2.5c1.7,1.9,1,5.8,2.5,7.6c1.7,1.9,3.6,3.4,5.2,5.2c1.7,1.9,3.1,4,4.6,5.7c1.8,1.9,3.7,3.5,5.2,5.2
					c1.8,1.8,2.3,4.8,4.1,6.5c1.8,1.8,5.6,1.4,7.3,3.1c1.8,1.7,2.5,4.7,4.3,6.3c1.8,1.7,3.4,3.7,5.3,5.3c1.9,1.7,3.5,3.7,5.3,5.2
					c1.9,1.6,4.8,2.1,6.7,3.6c2,1.6,4.3,2.5,6.3,4s4.2,2.7,6.2,4.1s4.2,2.6,6.3,3.9c2.1,1.3,2.7,5.1,4.8,6.4s5.6,0.3,7.7,1.5
					c2.2,1.2,3.9,3.2,6.1,4.3c2.2,1.1,3.6,4,5.9,5c2.2,1,5.2,0.5,7.5,1.5s5.2,0.3,7.5,1.2c2.3,0.9,4.8,1,7.2,1.8
					c2.3,0.8,4.8,1.1,7.2,1.9c2.3,0.8,4.4,2.4,6.8,3.1c2.3,0.7,4.3,2.7,6.8,3.4c2.4,0.6,5.2-0.5,7.6,0.1s4.2,3.7,6.6,4.2
					s4.4,2.8,6.9,3.3c2.4,0.5,5.2-1,7.7-0.5c2.4,0.5,4.9,0.4,7.4,0.8c2.4,0.4,5,0.1,7.5,0.5c2.4,0.4,4.5,2.8,7,3.2
					c2.4,0.4,5.2-1.4,7.7-1c2.4,0.4,4.9,0.4,7.4,0.7c2.4,0.3,4.7,2,7.2,2.3c2.4,0.3,5.1-0.9,7.6-0.6c2.4,0.3,4.6,3.3,7,3.6
					c2.4,0.3,4.8,1.7,7.3,2c2.4,0.3,4.9,0.5,7.4,0.8c2.3,0.3,5-1.2,7.5-0.9c2.4,0.2,4.9-0.7,7.4-0.5c2.4,0.2,4.7,1.9,7.2,2.1
					c2.4,0.2,5-2.5,7.5-2.4c2.4,0.2,4.8,0.5,7.3,0.6c2.4,0.1,4.7,2.1,7.2,2.2c2.4,0.1,4.9-1.4,7.4-1.3c2.4,0.1,4.7,3.3,7.2,3.4
					c2.4,0.1,4.8,1,7.3,1.1c2.4,0.1,4.9-2.6,7.4-2.5c2.4,0.1,4.9-1.1,7.3-1s4.8,2.2,7.2,2.3c2.4,0.1,4.9-0.5,7.3-0.5
					c2.4,0.1,4.9-0.6,7.3-0.5s4.8,0.3,7.3,0.3c2.4,0,4.9-0.4,7.3-0.4s4.8,3.6,7.3,3.6c2.4,0,4.9-2.9,7.3-2.8c2.4,0,4.8,2.9,7.3,3
					c2.4,0,4.9-1.9,7.3-1.9s4.9-0.4,7.3-0.4s4.9,0,7.3,0s4.9-0.6,7.3-0.6s4.9,2.5,7.3,2.5s4.9,0.4,7.3,0.4s4.8-3.6,7.3-3.7
					c2.4,0,4.9,1.8,7.3,1.8s4.9-0.4,7.3-0.5c2.4,0,4.9-1.3,7.3-1.3s4.9,3.7,7.3,3.7s4.9-1.6,7.3-1.6s4.8-2.9,7.3-2.9
					c2.4,0,4.9-0.2,7.3-0.2s4.9,2.4,7.3,2.4c2.4,0,4.8-2.3,7.3-2.4c2.4,0,4.9,0.2,7.3,0.2c2.4-0.1,4.9,0,7.3-0.1s4.9,2.4,7.4,2.4
					c2.4-0.1,4.9-1.2,7.3-1.2c2.4-0.1,4.8-2.4,7.3-2.5c2.4-0.1,4.9,1.6,7.3,1.6c2.5-0.1,4.9,0.1,7.3,0c2.5-0.1,4.9,1.6,7.3,1.6
					c2.5-0.1,4.9,1.1,7.3,1.1c2.5-0.1,4.9-0.2,7.3-0.3c2.5-0.1,4.9-1.2,7.3-1.2c2.5-0.1,4.8-2.7,7.2-2.7c2.5-0.1,5,2.1,7.4,2
					c2.5-0.1,4.8-3.4,7.2-3.5c2.5-0.1,5,1.6,7.4,1.6c2.5-0.1,5,1.7,7.4,1.6c2.5-0.1,4.8-3.2,7.2-3.3c2.5-0.1,5.1,3.6,7.4,3.5
					c2.5-0.1,4.9-1.8,7.2-1.9c2.6-0.1,5-0.6,7.3-0.7c2.6-0.1,5-0.1,7.3-0.1c2.7-0.1,5-1.8,7.2-1.9c2.9-0.1,5.3,0.1,7.3,0
					c3.1-0.1,6.8-3,5.6-5.9c-0.6-1.3-2.8-3.2-4.8-5.9c-1.2-1.7-3.2-3.2-5-5.4c-1.4-1.7-4.7-2.2-6.3-4.2c-1.5-1.8-2.1-4.4-3.8-6.3
					c-1.5-1.7-1.9-4.7-3.6-6.6c-1.6-1.7-5.1-1.8-6.8-3.6c-1.6-1.7-3.5-3.2-5.2-5c-1.7-1.7-0.7-6-2.5-7.8c-1.7-1.7-5.5-1.3-7.3-3
					c-1.7-1.7-2-4.9-3.8-6.6c-1.7-1.7-5.3-1.4-7.1-3.1c-1.8-1.6-2-5-3.8-6.6c-1.8-1.6-3.3-3.5-5.2-5.1c-1.8-1.6-4.3-2.4-6.2-4
					c-1.8-1.6-1.9-5.2-3.8-6.8c-1.8-1.6-4.8-1.8-6.7-3.3s-5.6-0.8-7.5-2.3c-1.9-1.5-1.3-6.1-3.3-7.6c-1.9-1.5-3.7-3.2-5.7-4.7
					c-1.9-1.4-4.9-1.5-6.9-3c-2-1.4-5.3-0.9-7.3-2.4c-2-1.4-3.1-4-5.1-5.3c-2-1.4-3.2-3.9-5.2-5.3c-2-1.3-5.5-0.4-7.6-1.7
					c-2.1-1.3-2.6-5-4.7-6.2c-2.1-1.3-4.9-1.2-7-2.5c-2.1-1.2-5-0.9-7.2-2.1c-2.1-1.2-2.4-5.8-4.5-6.9c-2.1-1.2-4.2-2.6-6.3-3.7
					c-2.2-1.1-4.6-1.7-6.8-2.8c-2.2-1.1-4.4-2.2-6.6-3.2c-2.2-1-5.1-0.6-7.3-1.6c-2.2-0.9-4.9-0.9-7.1-1.8s-4.8-1.1-7-1.9
					c-2.3-0.8-4-3.2-6.3-4s-4.8-1.1-7.1-1.8c-2.3-0.7-4.6-1.4-7-2.1s-4.2-3.3-6.6-3.9s-4.7-1.4-7.1-1.9s-4.9-0.3-7.3-0.7
					s-5.2,1.9-7.6,1.6s-4.8-1.2-7.2-1.4s-4.8-1-7.2-1.1c-2.5-0.1-4.9,0-7.3-0.1c-2.5-0.1-4.9-1.1-7.3-1.2c-2.5-0.1-5.1,3.7-7.4,3.6
					c-2.5-0.1-4.7-4.6-7.1-4.8c-2.5-0.1-5,2.2-7.4,2.1c-2.5-0.2-4.9-0.8-7.3-1s-4.7-1.6-7.1-1.8c-2.4-0.3-4.9-0.1-7.3-0.5
					s-4.7-1.3-7.1-1.8s-5,0-7.3-0.6c-2.4-0.6-4.9-0.5-7.3-1.2c-2.3-0.7-4.6-1.7-6.9-2.6s-3.6-3.9-5.8-4.9c-2.2-1-5.6,0.5-7.8-0.7
					c-2.1-1.1-2.5-5.3-4.6-6.6c-2-1.2-5.1-0.8-7.2-2.3c-2-1.4-2.9-4.1-4.9-5.6c-1.9-1.5-4-2.6-5.8-4.2s-5.1-1.6-6.9-3.3
					c-1.7-1.7-3.9-3-5.6-4.8c-1.6-1.7-2.6-4.2-4.2-6.1c-1.6-1.8-1.8-4.8-3.4-6.7c-1.5-1.8-4.1-2.8-5.7-4.8c-1.5-1.9-2.2-4.4-3.6-6.4
					c-1.4-1.9-3.6-3.4-5-5.4s-1-5.1-2.4-7.2c-1.3-2-6-1.9-7.3-4c-1.3-2-0.2-5.5-1.5-7.7c-1.2-2.1-1.8-4.6-3-6.7s-2.9-3.9-4.1-6.1
					c-1.2-2.1-1.6-4.6-2.8-6.8c-1.2-2.1-2.6-4.1-3.8-6.2c-1.1-2.1-3.3-3.7-4.4-5.9c-1.1-2.1-4.6-3.1-5.7-5.3c-1-2,0.7-5.5-0.3-7.9
					c-0.9-2.1-3.7-3.6-4.7-5.9c-0.9-2.2-2.7-4-3.7-6.4c-0.9-2.2-1.5-4.5-2.5-6.8c-0.9-2.2-0.6-5-1.6-7.2s-1.2-4.7-2.3-7
					c-1-2.2-4.2-3.3-5.3-5.5c-1.1-2.1-0.2-5.3-1.4-7.5c-1.2-2.1-4.8-2.7-6.1-4.8c-1.3-2-2.3-4.1-3.7-6.1c-1.4-2-2.4-4.1-3.9-6.1
					c-1.5-1.9-3.1-3.6-4.6-5.5c-1.6-1.8-0.2-6.3-1.9-8.1c-1.7-1.7-4.3-2.6-6.1-4.3c-1.8-1.6-5.2-1.3-7.1-2.9
					c-1.9-1.5-2.4-4.7-4.4-6.2c-1.9-1.4-5-1.2-7.1-2.5c-2-1.3-4.1-2.4-6.3-3.5c-2.1-1.1-3-4.8-5.2-5.8s-5.2-0.1-7.5-1
					c-2.2-0.9-3.7-4.2-6-5c-2.3-0.7-5-0.3-7.4-0.9c-2.3-0.6-4.5-2.3-6.9-2.8c-2.3-0.5-4.8-1.3-7.2-1.7c-2-0.3-4.9,3.1-7.8,2.9
					c-2.2-0.2-4.4-3.4-7.1-3.5c-2.3-0.1-4.8,0.4-7.4,0.3c-2.3-0.1-4.8,0.1-7.3,0c-2.3-0.1-4.8,1.6-7.4,1.5c-2.4-0.1-4.8,0.2-7.3,0.2
					c-2.4-0.1-4.8-2-7.3-2c-2.4-0.1-4.8-0.8-7.3-0.8c-2.4,0-4.8,0.4-7.3,0.4c-2.4,0-4.9,0.8-7.3,0.8s-4.9,1.8-7.3,1.8
					s-4.8-3.8-7.3-3.8c-2.4,0-4.9,4.1-7.4,4.1c-2.4,0-4.9-1.9-7.3-1.9s-4.9,1-7.3,1s-4.9-2.1-7.3-2.1s-4.9,1.9-7.3,1.9
					s-4.9-1.9-7.3-1.9s-4.9-0.9-7.3-0.9s-4.9,1.3-7.3,1.3s-4.9-1-7.3-1s-4.9-0.1-7.3-0.1s-4.9,2.8-7.3,2.8s-4.9-0.9-7.3-0.9
					s-4.9-1-7.3-1s-4.9-1.5-7.3-1.4c-2.4,0-4.9,3-7.3,3s-4.9-1.2-7.3-1.2s-4.9,2.3-7.3,2.3s-4.9-1.9-7.4-1.8c-2.4,0-4.9,2.2-7.3,2.3
					c-2.4,0-4.9-0.9-7.3-0.9c-2.5,0-4.9-1.1-7.4-1.1s-4.9-0.6-7.3-0.5c-2.5,0-4.8,3.3-7.3,3.3s-4.9-2.3-7.4-2.3s-4.9,0.9-7.3,0.9
					c-2.5,0-4.9,0.8-7.3,0.8c-2.5,0-5-2.3-7.4-2.2c-2.5,0-4.9,0-7.3,0c-2.5,0-4.9-1.5-7.4-1.4c-2.5,0-4.9,3.2-7.3,3.2
					c-2.5,0-4.9-0.8-7.4-0.8c-2.5,0.1-4.9-0.9-7.4-0.9c-2.5,0.1-4.9-0.7-7.4-0.7c-2.5,0.1-4.9,1.9-7.3,2c-2.5,0.1-4.9,0.9-7.3,1
					c-2.5,0.1-5-0.7-7.3-0.6c-2.5,0.1-5-0.3-7.3-0.2c-2.5,0.1-4.9,1.5-7.3,1.6c-2.5,0.1-4.9,1.5-7.3,1.5c-2.5,0.1-5.1-4.6-7.4-4.5
					c-2.5,0.1-4.9,3.8-7.3,3.9c-2.6,0.1-5,0.4-7.3,0.4C266.6,684.5,264,681,261.9,680.9L261.9,680.9z"/>
				<g>
					<g class="st12">
						<path class="st9" d="M618.5,975.5c-2.9,0.1-1.6,3.6-3.8,5.4c-1.8,1.5-3.8-0.1-3.7,2.2c0.1,3.3,1,2.9,4.2,3.6
							c3.3,0.7,2.5-0.1,5.1-2.2c2.1-1.7,2.4-1.1,2.7-3.8C623.3,976.8,621.9,975.4,618.5,975.5L618.5,975.5z"/>
						<path class="st9" d="M599.3,978.6c-1.6-0.9-1.8,1.1-3.7,1.1s-2.8-3.2-4.4-2.2s-1.6,1.9-2.6,3.6c-0.9,1.6-1,2.1-1,4
							s1.9,1.3,2.9,3s0.5,1.3,2.1,2.3c1.6,0.9,1.1,2.3,3,2.3s2-0.2,3.7-1.2c1.6-0.9,1.9-0.9,2.9-2.6c0.9-1.6,1.4-1.9,1.4-3.8
							s-3-0.9-3.7-2.7C599.1,980.6,601,979.6,599.3,978.6L599.3,978.6z"/>
						<path class="st9" d="M611.3,964.1c-2.6-1.5-4.2-2.4-6.7-0.9c-2.6,1.5-2.1,3.3-2.1,6.3s-0.4,4.6,2.1,6.1s3.7,0.1,6.3-1.4
							c2.6-1.5,0.9-2.3,1.8-5.2C613.6,966.1,613.9,965.6,611.3,964.1z"/>
					</g>
					<g class="st12">
						<path class="st9" d="M684,701.1c-1.8-1.8-4.1,0.1-6.6,0.8s-1.6,2.6-3.7,4.2c-1.8,1.4-0.8,1.4-1.8,3.4s-5.4,1.8-4.9,3.9
							c0.8,3.9,1.8,5.8,5.2,8c2.2,1.4,3.7-2.2,6.3-2.4c2.6-0.3,5.4,2.8,6.7,0.5c1.2-2.1-1.5-3.6-2.9-5.6s-3.8-0.8-4-3.2
							c-0.1-2.3-0.3-3.3,1.3-5.1C682,703.1,685.6,702.8,684,701.1L684,701.1z"/>
						<path class="st9" d="M689.7,724.5c-3.7,0.1-2,4.6-4.9,6.9c-2.3,1.9-4.8-0.2-4.7,2.8c0.1,4.2,1.2,3.7,5.3,4.6
							c4.2,0.9,3.2-0.2,6.5-2.9c2.7-2.2,3.1-1.4,3.4-4.8C695.8,726.2,694,724.4,689.7,724.5L689.7,724.5z"/>
						<path class="st9" d="M693.5,708.3c-1.2-0.6,0.2,0.3,0,1.6c-0.4,3-3.6,4.1-1.6,6.4s3.7,2.1,6.3,0.6c2.1-1.2-0.8-1.7-1.5-3.9
							C695.9,709.9,696.3,709.7,693.5,708.3L693.5,708.3z"/>
					</g>
					<g class="st12">
						<path class="st9" d="M1132.9,1072.3c-3.6-2.3-4.9,3-9.2,3.4c-3.5,0.3-4.5-3.3-6.4-0.4c-2.7,4-1.2,4.4,2.1,7.9
							c3.4,3.6,3.2,2,8.1,1.5c4-0.3,3.9,0.7,6.4-2.4C1137.5,1077.9,1137,1075,1132.9,1072.3L1132.9,1072.3z"/>
						<path class="st9" d="M1150.7,1068.2c-0.8-1.3,0,0.3-1.1,1.5c-2.3,2.6-6.1,1.6-5.7,5.1c0.4,3.5,2.1,4.5,5.6,4.7
							c2.7,0.2,0.3-2.2,1.2-4.8C1152,1071.3,1152.5,1071.3,1150.7,1068.2L1150.7,1068.2z"/>
					</g>
				</g>
			</g>
		</g>
		<path class="st8" d="M484,331.2l2.2,14.5c0,0,43.5-6.3,67.2-67C557.4,218.2,484,331.2,484,331.2L484,331.2z"/>
		<g>
			<g>
				<g>
					<path class="st13" d="M544.1,55.6c0.6,31.7-18.9,51.9-47.8,52.4s-42.4-20-43-51.7S467.5,0.5,496.4,0
						C525.4-0.5,543.6,23.9,544.1,55.6z"/>
					<path class="st0" d="M495.7,116.7c18.8-0.4,51.5,0.7,47.7-14.3c-9.3-36.6-72.5-45.6-91.9-4.1
						C458.3,116.7,475.3,117.2,495.7,116.7z"/>
				</g>
				<g>
					<g>
						<g id="head">
							<path id="hair-2" class="st2" d="M582.5,160.6c8.6,49.4-23.9,101.6-73.7,110.3s-98.1-29.4-106.7-78.8
								c-8.6-49.4,24.8-96.5,74.6-105.2C526.5,78.2,573.9,111.2,582.5,160.6L582.5,160.6z"/>
							<path class="st3" d="M547.4,184.3c-13.8-41.4-54.1-57.1-93-50.3c-38.9,6.8-53.8,35.7-47,74.7c0,0,9,49.7,9.4,52.2
								c5.1,29.2,40,79.7,68,74.8c32.4-5.7,80.2-58.5,75.2-86.5C559.7,246.8,552.7,200,547.4,184.3L547.4,184.3z"/>
						</g>
						<g>
							<g id="eyebrows">
								<g>
									<path class="st2" d="M476.2,195.4c0,0,28.5-8,34.2-8.4c9.5-0.7,12.5,5,14.5,8c0.7,1-37,11.5-42.9,10.4
										S476.2,195.4,476.2,195.4z"/>
									<path class="st2" d="M444.8,200.9c0,0-29.5,2.2-35,3.7c-1,0.3-2,0.6-2.8,1c-3,1.2-1.2,11.6,1.4,11.5
										c11.8-0.7,30.9-2.7,34.4-4.7C448,209.4,444.8,200.9,444.8,200.9L444.8,200.9z"/>
								</g>
							</g>
							<g>
								<path class="st8" d="M476.7,267.2c2.7-0.7,6.5,3.2,6.5,3.2l-10.9,2.5C473.5,270.1,474,267.9,476.7,267.2L476.7,267.2z"/>
								<path class="st8" d="M461.6,268.5c2.7,0.1,4.8,4.9,4.8,4.9l-10-0.4C456.5,273,458.9,268.4,461.6,268.5L461.6,268.5z"/>
								<path class="st8" d="M460.7,252.3c-2-19.6-8.5-40.8-8.5-41.1l-4.3,1.3c0.1,0.2,6.4,21.1,8.4,40.2L460.7,252.3L460.7,252.3z"
									/>
							</g>
							<path class="st8" d="M476.9,304.7c-7.7,1-13.8-1.1-14.2-1.2c-1.2-0.4-1.8-1.7-1.4-2.8c0.4-1.2,1.7-1.8,2.8-1.4
								c0.2,0.1,12.3,4.1,22.8-2.9c1-0.7,2.4-0.4,3.1,0.6s0.4,2.4-0.6,3.1C485.3,302.9,480.9,304.2,476.9,304.7L476.9,304.7z"/>
						</g>
					</g>
					<g>
						<path class="st3" d="M556.2,192.1c2.6-4.5,10-8.7,20.6,0.6s11.9,50.9-9.8,54.7C545.3,251.2,549.2,204.4,556.2,192.1
							L556.2,192.1z"/>
						<path class="st8" d="M570.8,198.9c0,0-9.6,3.3-8.4,12.5s3.5,19.8,3.5,19.8L570.8,198.9L570.8,198.9z"/>
					</g>
				</g>
				<g>
					<g>
						<g id="face">
							<path class="st2" d="M440.1,231.2c0.3,6.3-1.9,12.1-7.3,13.2c-5.4,1.2-10.8-2.8-12.1-9c-1.3-6.1,2.6-1.8,7.9-3
								C434,231.3,439.9,228.2,440.1,231.2z"/>
						</g>
						<path class="st2" d="M445.7,233.8c-13.8-2.5-20.7-1.1-28.7,0.5l-0.7-3.3c8.3-1.7,15.6-3.1,29.9-0.5L445.7,233.8L445.7,233.8z"
							/>
					</g>
					<g>
						<g id="face-2">
							<path class="st2" d="M488.4,223.7c1.8,6,5.9,10.7,11.3,10s9.2-6.3,8.4-12.5c-0.8-6.2-3.1-0.9-8.5-0.2
								S487.6,220.8,488.4,223.7L488.4,223.7z"/>
						</g>
						<path class="st2" d="M484,228.1l-1.7-3c12.7-7.3,19.9-8.4,28.2-9.7c2-0.3,4.1-0.6,6.4-1l0.6,3.4c-2.3,0.4-4.5,0.8-6.5,1.1
							C502.7,220.1,496.1,221.1,484,228.1z"/>
					</g>
				</g>
			</g>
			<path class="st8" d="M489.2,288.7c-0.1,0-0.1,0-0.2,0c-1.2,0.2-2.8,0.2-4.5,0.2c-1.6,0-3.5,0-4.3,0.3c-3,0.8-9.6,1.8-12.2,2
				c-1,0.1-2.6,0.6-4.1,1c-1.6,0.5-2.9,0.9-4,1c-7,0.6-11.2-1.4-11.4-1.5c-1.1-0.5-1.6-1.9-1.1-3s1.9-1.6,3-1.1c0.1,0,3.5,1.5,9.1,1
				c0.6,0,1.9-0.5,3.1-0.8c1.8-0.5,3.6-1.1,5-1.2c2.3-0.2,8.7-1.2,11.4-1.9c1.4-0.3,3.3-0.4,5.4-0.4c1.4,0,2.9,0,3.8-0.2
				c2.8-0.5,5.8-2,8.9-3.6c1.5-0.8,3-1.5,4.6-2.3c1.1-0.5,2.5,0,3,1.1s0,2.5-1.1,3c-1.5,0.7-2.9,1.4-4.4,2.2
				C495.9,286.5,492.6,288.1,489.2,288.7L489.2,288.7z"/>
		</g>
	</g>
	<g>
		<path class="st0" d="M916.1,267.4c11.8,78.7-42.9,152.2-122.3,164.2s-153.3-42.2-165.2-120.9c-11.8-78.7,42.9-152.2,122.3-164.2
			C830.3,134.6,904.2,188.7,916.1,267.4L916.1,267.4z"/>
		<g>
			<path class="st0" d="M827,270.2c-0.8,0-1.6-0.1-2.4-0.2c-14.7-3.6-27.2-12.9-35.1-26c-8-13.2-10.5-28.7-7-43.7l13.3-58.4
				c3.4-15,12.4-27.7,25.2-35.8c12.8-8,27.9-10.5,42.6-6.9c4.9,1.2,7.9,6.2,6.8,11.2s-6,8-10.9,6.8c-10-2.5-20.2-0.8-28.9,4.7
				c-8.7,5.5-14.8,14.1-17.1,24.3l-13.3,58.4c-2.3,10.2-0.6,20.7,4.8,29.7c5.4,8.9,13.9,15.2,23.8,17.7c4.9,1.2,7.9,6.2,6.8,11.2
				C834.6,267.3,831,270.1,827,270.2L827,270.2z"/>
			<g>
				<path class="st2" d="M841.4,248.6c1.2,36-42.3,66.4-97,67.9C689.6,318,644.3,290,643.1,254c-1.2-36,42.3-66.4,97-67.9
					C794.9,184.6,840.2,212.6,841.4,248.6L841.4,248.6z"/>
				<g>
					<path class="st14" d="M676.6,252c0.1,2.8-2.1,5.2-4.9,5.3s-5.1-2.2-5.2-5c-0.1-2.9,2.1-5.2,4.9-5.3S676.5,249.1,676.6,252z"/>
					<path class="st14" d="M709.2,252.5c0.1,2.8-2.1,5.2-4.9,5.3s-5.1-2.2-5.2-5c-0.1-2.9,2.1-5.2,4.9-5.3
						C706.8,247.4,709.1,249.7,709.2,252.5L709.2,252.5z"/>
					<path class="st14" d="M699.4,241.2c0.1,2.8-2.1,5.2-4.9,5.3s-5.1-2.2-5.2-5c-0.1-2.9,2.1-5.2,4.9-5.3
						C697,236.1,699.3,238.3,699.4,241.2z"/>
					<path class="st14" d="M686.6,240.9c0.1,2.8-2.1,5.2-4.9,5.3s-5.1-2.2-5.2-5s2.1-5.2,4.9-5.3C684.2,235.7,686.5,238,686.6,240.9
						z"/>
				</g>
				<g>
					<path class="st14" d="M775.1,249.3c0.1,2.8-2.1,5.2-4.9,5.3s-5.1-2.2-5.2-5c-0.1-2.9,2.1-5.2,4.9-5.3S775,246.5,775.1,249.3
						L775.1,249.3z"/>
					<path class="st14" d="M807.7,249.9c0.1,2.9-2.1,5.2-4.9,5.3s-5.1-2.2-5.2-5s2.1-5.2,4.9-5.3C805.3,244.8,807.7,247,807.7,249.9
						L807.7,249.9z"/>
					<path class="st14" d="M798,238.5c0.1,2.9-2.1,5.2-4.9,5.3s-5.1-2.2-5.2-5s2.1-5.2,4.9-5.3C795.5,233.4,797.9,235.7,798,238.5z"
						/>
					<path class="st14" d="M785.1,238.2c0.1,2.8-2.1,5.2-4.9,5.3s-5.1-2.2-5.2-5c-0.1-2.9,2.1-5.2,4.9-5.3S785,235.3,785.1,238.2
						L785.1,238.2z"/>
				</g>
			</g>
		</g>
		<path class="st15" d="M894.6,366.6c-5.8-3.8-11.2-9.5-15.7-16.9c-8.4-13.9-13.1-32.4-13-52s4.7-38,13.2-51.9
			c6.5-10.7,14.7-17.7,23.6-20.6l1.9,3.6c-8.2,2.4-15.9,9-22,19c-8.1,13.3-12.6,31-12.6,49.9s4.4,36.6,12.4,49.9
			c4.2,6.9,9.1,12.2,14.4,15.6L894.6,366.6L894.6,366.6z"/>
		<path class="st15" d="M812.2,150.2c0,0-4-1.7-14.1-2.4l0.3-4c10.8,0.8,15.2,2.6,15.3,2.7L812.2,150.2L812.2,150.2z"/>
	</g>
</g>
</svg>
