<?xml version="1.0" encoding="utf-8"?>
<!-- Generator: Adobe Illustrator 27.3.1, SVG Export Plug-In . SVG Version: 6.00 Build 0)  -->
<svg version="1.1" id="Layer_1" xmlns="http://www.w3.org/2000/svg" xmlns:xlink="http://www.w3.org/1999/xlink" x="0px" y="0px"
	 viewBox="0 0 2000 2000" style="enable-background:new 0 0 2000 2000;" xml:space="preserve">
<style type="text/css">
	.st0{opacity:0.3;fill:#293657;enable-background:new    ;}
	.st1{fill:#EBECED;}
	.st2{fill:#FFFFFF;}
	.st3{fill:#2A3756;}
	.st4{fill:#527BEF;}
</style>
<ellipse class="st0" cx="565.9" cy="1689" rx="339.1" ry="52"/>
<ellipse class="st0" cx="1476.3" cy="1689" rx="339.1" ry="52"/>
<g>
	<g>
		<path class="st1" d="M743,936.9c30.6,28.2,175.1,141.2,198.7,115.6c23.6-25.6-100.6-160.6-131.2-188.8
			C780,835.5,740,829,721.4,849.2C702.8,869.4,712.4,908.6,743,936.9L743,936.9z"/>
		<path class="st2" d="M246,850.4c0,152.9,128.1,276.8,286.1,276.8s286.1-124,286.1-276.8s-128-276.8-286-276.8S246,697.5,246,850.4
			L246,850.4z"/>
		<g>
			<path class="st2" d="M420.2,830.3c1.5-0.2,3-0.6,4.5-1.2c27.5-11.1,49.1-32.2,60.7-59.5s12-57.5,0.9-85l-43.1-107.1
				c-11.1-27.5-32.2-49.1-59.5-60.7c-27.3-11.6-57.5-12-85-0.9c-9.1,3.7-13.5,14-9.9,23.2c3.7,9.1,14,13.5,23.2,9.9
				c18.7-7.5,39.2-7.3,57.7,0.6c18.5,7.9,32.9,22.5,40.4,41.2l43.1,107.1c7.5,18.7,7.3,39.2-0.6,57.7s-22.5,32.9-41.2,40.4
				c-9.1,3.7-13.5,14-9.9,23.2C404.6,826.9,412.3,831.2,420.2,830.3L420.2,830.3z"/>
			<path class="st3" d="M357.6,810.9c8.3,68.7,101.7,114,208.8,101.2c107-12.9,187.1-79,178.9-147.8s-101.7-114-208.8-101.2
				C429.5,676,349.4,742.2,357.6,810.9L357.6,810.9z"/>
		</g>
		<path class="st1" d="M250.4,982.1c-10.5,40.3-42.2,221-8.5,229.8s94.3-164.3,104.8-204.6s-2.5-78.5-29.1-85.5
			C291,914.8,260.9,941.8,250.4,982.1L250.4,982.1z"/>
	</g>
	<g>
		<g>
			<path class="st4" d="M485.9,752.4c0.7,5.2-2.9,10-8.1,10.7s-10-2.9-10.7-8.1c-0.7-5.2,2.9-10,8.1-10.7
				C480.4,743.5,485.1,747.1,485.9,752.4L485.9,752.4z"/>
			<path class="st4" d="M488.7,773.2c0.7,5.2-2.9,10-8.1,10.7s-10-2.9-10.7-8.1c-0.7-5.2,2.9-10,8.1-10.7
				C483.2,764.3,488,768,488.7,773.2L488.7,773.2z"/>
			<path class="st4" d="M491.6,794c0.7,5.2-2.9,10-8.1,10.7s-10-2.9-10.7-8.1c-0.7-5.2,2.9-10,8.1-10.7
				C486.1,785.1,490.9,788.8,491.6,794L491.6,794z"/>
			<path class="st4" d="M494.4,814.8c0.7,5.2-2.9,10-8.1,10.7s-10-2.9-10.7-8.1c-0.7-5.2,2.9-10,8.1-10.7S493.7,809.6,494.4,814.8z"
				/>
			<path class="st4" d="M497.3,835.6c0.7,5.2-2.9,10-8.1,10.7s-10-2.9-10.7-8.1c-0.7-5.2,2.9-10,8.1-10.7S496.6,830.4,497.3,835.6
				L497.3,835.6z"/>
		</g>
		<path class="st4" d="M512.9,791c0.7,5.2-2.9,10-8.1,10.7s-10-2.9-10.7-8.1c-0.7-5.2,2.9-10,8.1-10.7
			C507.4,782.2,512.2,785.8,512.9,791z"/>
		<path class="st4" d="M530.1,809.9c0.7,5.2-2.9,10-8.1,10.7s-10-2.9-10.7-8.1c-0.7-5.2,2.9-10,8.1-10.7
			C524.6,801,529.4,804.7,530.1,809.9L530.1,809.9z"/>
		<g>
			<path class="st4" d="M542.8,744.5c0.7,5.2-2.9,10-8.1,10.7s-10-2.9-10.7-8.1s2.9-10,8.1-10.7
				C537.3,735.7,542.1,739.3,542.8,744.5L542.8,744.5z"/>
			<path class="st4" d="M545.7,765.3c0.7,5.2-2.9,10-8.1,10.7s-10-2.9-10.7-8.1s2.9-10,8.1-10.7S545,760.1,545.7,765.3z"/>
			<path class="st4" d="M548.5,786.2c0.7,5.2-2.9,10-8.1,10.7s-10-2.9-10.7-8.1c-0.7-5.2,2.9-10,8.1-10.7S547.8,781,548.5,786.2
				L548.5,786.2z"/>
			<path class="st4" d="M551.4,807c0.7,5.2-2.9,10-8.1,10.7s-10-2.9-10.7-8.1s2.9-10,8.1-10.7C545.9,798.1,550.7,801.7,551.4,807
				L551.4,807z"/>
			<path class="st4" d="M554.3,827.8c0.7,5.2-2.9,10-8.1,10.7s-10-2.9-10.7-8.1s2.9-10,8.1-10.7S553.5,822.6,554.3,827.8z"/>
		</g>
		<g>
			<path class="st4" d="M585.4,738.7c0.7,5.2-2.9,10-8.1,10.7s-10-2.9-10.7-8.1s2.9-10,8.1-10.7S584.7,733.5,585.4,738.7
				L585.4,738.7z"/>
			<path class="st4" d="M588.3,759.5c0.7,5.2-2.9,10-8.1,10.7c-5.2,0.7-10-2.9-10.7-8.1s2.9-10,8.1-10.7S587.6,754.3,588.3,759.5
				L588.3,759.5z"/>
			<path class="st4" d="M591.1,780.3c0.7,5.2-2.9,10-8.1,10.7c-5.2,0.7-10-2.9-10.7-8.1s2.9-10,8.1-10.7S590.4,775.1,591.1,780.3
				L591.1,780.3z"/>
			<path class="st4" d="M594,801.1c0.7,5.2-2.9,10-8.1,10.7s-10-2.9-10.7-8.1c-0.7-5.2,2.9-10,8.1-10.7S593.3,795.9,594,801.1
				L594,801.1z"/>
			<path class="st4" d="M596.9,821.9c0.7,5.2-2.9,10-8.1,10.7s-10-2.9-10.7-8.1c-0.7-5.2,2.9-10,8.1-10.7S596.1,816.7,596.9,821.9
				L596.9,821.9z"/>
		</g>
		<g>
			<path class="st4" d="M606.7,735.8c0.7,5.2-2.9,10-8.1,10.7s-10-2.9-10.7-8.1c-0.7-5.2,2.9-10,8.1-10.7
				C601.2,726.9,606,730.5,606.7,735.8L606.7,735.8z"/>
			<path class="st4" d="M618.2,819c0.7,5.2-2.9,10-8.1,10.7s-10-2.9-10.7-8.1s2.9-10,8.1-10.7S617.4,813.8,618.2,819z"/>
		</g>
		<g>
			<path class="st4" d="M628,732.8c0.7,5.2-2.9,10-8.1,10.7s-10-2.9-10.7-8.1c-0.7-5.2,2.9-10,8.1-10.7S627.3,727.6,628,732.8z"/>
			<path class="st4" d="M630.9,753.6c0.7,5.2-2.9,10-8.1,10.7s-10-2.9-10.7-8.1s2.9-10,8.1-10.7
				C625.4,744.8,630.2,748.4,630.9,753.6L630.9,753.6z"/>
			<path class="st4" d="M633.7,774.4c0.7,5.2-2.9,10-8.1,10.7s-10-2.9-10.7-8.1s2.9-10,8.1-10.7S633,769.2,633.7,774.4z"/>
			<path class="st4" d="M636.6,795.2c0.7,5.2-2.9,10-8.1,10.7s-10-2.9-10.7-8.1c-0.7-5.2,2.9-10,8.1-10.7
				C631.1,786.4,635.9,790,636.6,795.2L636.6,795.2z"/>
			<path class="st4" d="M639.5,816c0.7,5.2-2.9,10-8.1,10.7s-10-2.9-10.7-8.1c-0.7-5.2,2.9-10,8.1-10.7S638.7,810.8,639.5,816
				L639.5,816z"/>
		</g>
	</g>
</g>
<g>
	<g>
		<path class="st1" d="M1181.8,922.8c-25.1-33.2-123.5-188-95.7-209.1c27.8-21,150,115.8,175.1,149s27.7,73.6,5.7,90.2
			S1206.9,956,1181.8,922.8L1181.8,922.8z"/>
		<path class="st2" d="M1762.4,850.4c0,152.9-128.1,276.8-286.1,276.8s-286.1-124-286.1-276.8s128.1-276.8,286.1-276.8
			S1762.4,697.5,1762.4,850.4z"/>
		<g>
			<path class="st2" d="M1588.3,830.3c-1.5-0.2-3-0.6-4.5-1.2c-27.5-11.1-49.1-32.2-60.7-59.5s-12-57.5-0.9-85l43.1-107.1
				c11.1-27.5,32.2-49.1,59.5-60.7c27.3-11.6,57.5-12,85-0.9c9.1,3.7,13.5,14,9.9,23.2c-3.7,9.1-14,13.5-23.2,9.9
				c-18.7-7.5-39.2-7.3-57.7,0.6c-18.5,7.9-32.9,22.5-40.4,41.2l-43.1,107.1c-7.5,18.7-7.3,39.2,0.6,57.7s22.6,32.9,41.2,40.4
				c9.1,3.7,13.6,14,9.9,23.2C1603.8,826.9,1596.1,831.2,1588.3,830.3L1588.3,830.3z"/>
			<path class="st3" d="M1650.8,810.9c-8.3,68.7-101.7,114-208.8,101.2c-107-12.9-187.1-79-178.9-147.8s101.7-114,208.8-101.2
				C1579,676,1659.1,742.2,1650.8,810.9L1650.8,810.9z"/>
		</g>
		<path class="st1" d="M1679.6,914.5c32.8-25.7,185.8-126.8,207.3-99.4c21.5,27.4-113.1,152-145.9,177.7s-73.1,29-90,7.4
			C1634,978.6,1646.8,940.2,1679.6,914.5L1679.6,914.5z"/>
	</g>
	<g>
		<g>
			<path class="st4" d="M1363.8,728c-0.9,5.2-5.8,8.6-11,7.7c-5.2-0.9-8.6-5.8-7.7-11s5.8-8.6,11-7.7
				C1361.3,718,1364.7,722.9,1363.8,728z"/>
			<path class="st4" d="M1360.1,748.7c-0.9,5.2-5.8,8.6-11,7.7c-5.2-0.9-8.6-5.8-7.7-11s5.8-8.6,11-7.7S1361.1,743.6,1360.1,748.7z"
				/>
			<path class="st4" d="M1356.5,769.4c-0.9,5.2-5.8,8.6-11,7.7c-5.2-0.9-8.6-5.8-7.7-11s5.8-8.6,11-7.7S1357.4,764.2,1356.5,769.4z"
				/>
		</g>
		<g>
			<path class="st4" d="M1377.7,773.2c-0.9,5.2-5.8,8.6-11,7.7c-5.2-0.9-8.6-5.8-7.7-11s5.8-8.6,11-7.7
				C1375.1,763.1,1378.6,768,1377.7,773.2z"/>
			<path class="st4" d="M1374,793.8c-0.9,5.2-5.8,8.6-11,7.7c-5.2-0.9-8.6-5.8-7.7-11s5.8-8.6,11-7.7
				C1371.5,783.7,1374.9,788.7,1374,793.8z"/>
			<path class="st4" d="M1370.3,814.5c-0.9,5.2-5.8,8.6-11,7.7c-5.2-0.9-8.6-5.8-7.7-11s5.8-8.6,11-7.7
				C1367.8,804.4,1371.2,809.3,1370.3,814.5z"/>
		</g>
		<g>
			<path class="st4" d="M1406.2,735.5c-0.9,5.2-5.8,8.6-11,7.7s-8.6-5.8-7.7-11s5.8-8.6,11-7.7
				C1403.6,725.5,1407.1,730.4,1406.2,735.5z"/>
			<path class="st4" d="M1402.5,756.2c-0.9,5.2-5.8,8.6-11,7.7c-5.2-0.9-8.6-5.8-7.7-11s5.8-8.6,11-7.7S1403.4,751.1,1402.5,756.2z"
				/>
			<path class="st4" d="M1398.8,776.9c-0.9,5.2-5.8,8.6-11,7.7c-5.2-0.9-8.6-5.8-7.7-11s5.8-8.6,11-7.7S1399.7,771.7,1398.8,776.9z"
				/>
		</g>
		<g>
			<path class="st4" d="M1448.5,743c-0.9,5.2-5.8,8.6-11,7.7c-5.2-0.9-8.6-5.8-7.7-11s5.8-8.6,11-7.7
				C1446,732.9,1449.4,737.9,1448.5,743z"/>
			<path class="st4" d="M1444.8,763.7c-0.9,5.2-5.8,8.6-11,7.7c-5.2-0.9-8.6-5.8-7.7-11s5.8-8.6,11-7.7S1445.7,758.6,1444.8,763.7z"
				/>
			<path class="st4" d="M1441.2,784.4c-0.9,5.2-5.8,8.6-11,7.7s-8.6-5.8-7.7-11s5.8-8.6,11-7.7
				C1438.6,774.3,1442.1,779.2,1441.2,784.4z"/>
			<path class="st4" d="M1437.5,805.1c-0.9,5.2-5.8,8.6-11,7.7c-5.2-0.9-8.6-5.8-7.7-11s5.8-8.6,11-7.7
				C1435,795,1438.4,799.9,1437.5,805.1z"/>
			<path class="st4" d="M1433.8,825.8c-0.9,5.2-5.8,8.6-11,7.7c-5.2-0.9-8.6-5.8-7.7-11s5.8-8.6,11-7.7
				C1431.3,815.7,1434.7,820.6,1433.8,825.8z"/>
		</g>
		<g>
			<path class="st4" d="M1469.7,746.8c-0.9,5.2-5.8,8.6-11,7.7c-5.2-0.9-8.6-5.8-7.7-11s5.8-8.6,11-7.7
				C1467.1,736.7,1470.6,741.6,1469.7,746.8z"/>
			<path class="st4" d="M1462.3,788.2c-0.9,5.2-5.8,8.6-11,7.7c-5.2-0.9-8.6-5.8-7.7-11s5.8-8.6,11-7.7S1463.2,783,1462.3,788.2z"/>
			<path class="st4" d="M1455,829.5c-0.9,5.2-5.8,8.6-11,7.7c-5.2-0.9-8.6-5.8-7.7-11s5.8-8.6,11-7.7
				C1452.5,819.4,1455.9,824.3,1455,829.5z"/>
		</g>
		<g>
			<path class="st4" d="M1490.8,750.5c-0.9,5.2-5.8,8.6-11,7.7c-5.2-0.9-8.6-5.8-7.7-11s5.8-8.6,11-7.7
				C1488.3,740.5,1491.7,745.4,1490.8,750.5z"/>
			<path class="st4" d="M1483.5,791.9c-0.9,5.2-5.8,8.6-11,7.7c-5.2-0.9-8.6-5.8-7.7-11s5.8-8.6,11-7.7S1484.4,786.7,1483.5,791.9z"
				/>
			<path class="st4" d="M1476.2,833.3c-0.9,5.2-5.8,8.6-11,7.7c-5.2-0.9-8.6-5.8-7.7-11s5.8-8.6,11-7.7
				C1473.6,823.2,1477.1,828.1,1476.2,833.3z"/>
		</g>
		<g>
			<path class="st4" d="M1533.2,758c-0.9,5.2-5.8,8.6-11,7.7c-5.2-0.9-8.6-5.8-7.7-11s5.8-8.6,11-7.7S1534.1,752.9,1533.2,758z"/>
			<path class="st4" d="M1529.5,778.7c-0.9,5.2-5.8,8.6-11,7.7c-5.2-0.9-8.6-5.8-7.7-11s5.8-8.6,11-7.7S1530.4,773.6,1529.5,778.7z"
				/>
			<path class="st4" d="M1525.8,799.4c-0.9,5.2-5.8,8.6-11,7.7c-5.2-0.9-8.6-5.8-7.7-11s5.8-8.6,11-7.7S1526.8,794.2,1525.8,799.4z"
				/>
			<path class="st4" d="M1518.5,840.8c-0.9,5.2-5.8,8.6-11,7.7c-5.2-0.9-8.6-5.8-7.7-11s5.8-8.6,11-7.7
				C1516,830.7,1519.4,835.6,1518.5,840.8z"/>
		</g>
		<g>
			<path class="st4" d="M1554.3,761.8c-0.9,5.2-5.8,8.6-11,7.7c-5.2-0.9-8.6-5.8-7.7-11s5.8-8.6,11-7.7
				C1551.8,751.7,1555.2,756.6,1554.3,761.8z"/>
			<path class="st4" d="M1547,803.2c-0.9,5.2-5.8,8.6-11,7.7c-5.2-0.9-8.6-5.8-7.7-11s5.8-8.6,11-7.7S1547.9,798,1547,803.2z"/>
			<path class="st4" d="M1539.7,844.5c-0.9,5.2-5.8,8.6-11,7.7s-8.6-5.8-7.7-11s5.8-8.6,11-7.7
				C1537.2,834.4,1540.6,839.4,1539.7,844.5z"/>
		</g>
		<g>
			<path class="st4" d="M1575.5,765.5c-0.9,5.2-5.8,8.6-11,7.7c-5.2-0.9-8.6-5.8-7.7-11s5.8-8.6,11-7.7S1576.4,760.4,1575.5,765.5z"
				/>
			<path class="st4" d="M1568.2,806.9c-0.9,5.2-5.8,8.6-11,7.7c-5.2-0.9-8.6-5.8-7.7-11s5.8-8.6,11-7.7S1569.1,801.7,1568.2,806.9z"
				/>
			<path class="st4" d="M1564.5,827.6c-0.9,5.2-5.8,8.6-11,7.7c-5.2-0.9-8.6-5.8-7.7-11s5.8-8.6,11-7.7
				C1562,817.5,1565.4,822.4,1564.5,827.6z"/>
			<path class="st4" d="M1560.9,848.3c-0.9,5.2-5.8,8.6-11,7.7c-5.2-0.9-8.6-5.8-7.7-11s5.8-8.6,11-7.7
				C1558.3,838.2,1561.8,843.1,1560.9,848.3z"/>
		</g>
	</g>
</g>
</svg>
