<?xml version="1.0" encoding="utf-8"?>
<!-- Generator: Adobe Illustrator 27.3.1, SVG Export Plug-In . SVG Version: 6.00 Build 0)  -->
<svg version="1.1" id="Layer_1" xmlns="http://www.w3.org/2000/svg" xmlns:xlink="http://www.w3.org/1999/xlink" x="0px" y="0px"
	 viewBox="0 0 2400 1700" style="enable-background:new 0 0 2400 1700;" xml:space="preserve">
<style type="text/css">
	.st0{fill:#FFFFFF;}
	.st1{fill:#151C28;}
	.st2{fill:#527BEF;}
	.st3{fill:#DBD2D2;}
	.st4{fill:#324684;}
	.st5{fill:#253868;}
	.st6{fill:#4D5CB0;}
	.st7{fill:#B29C6B;}
	.st8{fill:#8C754D;}
</style>
<g>
	<g>
		<path class="st0" d="M817.6,793c8.5,209.4,186.6,372.2,397.8,363.7c211.2-8.6,375.5-185.3,367-394.7
			c-8.5-209.4-186.6-372.2-397.8-363.7C973.5,406.9,809.1,583.6,817.6,793L817.6,793z"/>
		<g>
			<path class="st0" d="M1049.2,756c2-0.3,4-0.9,6-1.8c36.2-16.6,63.8-46.8,77.8-84.7c14-38,12.8-79.4-3.5-116.5L1066,408.6
				c-16.3-37.1-45.7-65.5-82.8-80c-37.1-14.5-77.5-13.2-113.7,3.4c-12,5.5-17.3,20-11.9,32.3c5.4,12.3,19.5,17.8,31.5,12.3
				c24.5-11.3,52-12.1,77.2-2.3c25.2,9.8,45.2,29.1,56.3,54.3l63.5,144.4c11.1,25.2,11.9,53.3,2.4,79.1
				c-9.5,25.8-28.3,46.2-52.9,57.5c-12,5.5-17.3,20-11.9,32.3C1028.2,752.2,1038.9,757.8,1049.2,756L1049.2,756z"/>
			<g>
				<path class="st1" d="M1007.1,707.2c14.9,93.7,142.3,150.7,284.6,127.3c142.3-23.4,245.7-118.4,230.8-212.1
					s-142.3-150.7-284.7-127.2C1095.6,518.6,992.2,613.5,1007.1,707.2L1007.1,707.2z"/>
				<g>
					<path class="st2" d="M1435,634c1.2,7.4,8,12.5,15.3,11.3c7.2-1.2,12.2-8.2,11-15.6c-1.2-7.4-8-12.5-15.3-11.3
						C1438.7,619.6,1433.8,626.6,1435,634z"/>
					<path class="st2" d="M1350.9,651.8c1.2,7.4,8,12.5,15.2,11.3c7.2-1.2,12.2-8.2,11-15.6c-1.2-7.4-8-12.5-15.2-11.3
						C1354.7,637.3,1349.8,644.3,1350.9,651.8L1350.9,651.8z"/>
					<path class="st2" d="M1370.6,617.5c1.2,7.4,8,12.5,15.3,11.3c7.2-1.2,12.2-8.2,11-15.6s-8-12.5-15.2-11.3
						C1374.3,603.1,1369.4,610.1,1370.6,617.5z"/>
					<path class="st2" d="M1403.5,610.3c1.2,7.4,8,12.5,15.2,11.3c7.3-1.2,12.2-8.2,11-15.6s-8-12.5-15.3-11.3
						C1407.3,595.9,1402.4,602.9,1403.5,610.3L1403.5,610.3z"/>
				</g>
				<g>
					<path class="st2" d="M1178.9,676.2c1.2,7.4,8,12.5,15.2,11.3c7.2-1.2,12.2-8.2,11-15.6s-8-12.5-15.2-11.3
						C1182.6,661.8,1177.7,668.7,1178.9,676.2z"/>
					<path class="st2" d="M1094.8,693.9c1.2,7.4,8,12.5,15.3,11.3c7.2-1.2,12.2-8.2,11-15.6c-1.2-7.4-8-12.5-15.2-11.3
						C1098.6,679.5,1093.6,686.5,1094.8,693.9L1094.8,693.9z"/>
					<path class="st2" d="M1114.5,659.7c1.2,7.4,8,12.5,15.3,11.3c7.2-1.2,12.2-8.2,11-15.6c-1.2-7.4-8-12.5-15.2-11.3
						C1118.2,645.2,1113.3,652.2,1114.5,659.7z"/>
					<path class="st2" d="M1147.4,652.5c1.2,7.4,8,12.5,15.2,11.3c7.2-1.2,12.2-8.2,11-15.6c-1.2-7.4-8-12.5-15.2-11.3
						S1146.2,645,1147.4,652.5L1147.4,652.5z"/>
				</g>
			</g>
		</g>
		<path class="st3" d="M922.3,1038.9c13.3-12.6,24.2-30,32.2-51.6c14.9-40.2,17.6-90.2,7.8-140.9s-31.1-96-60-127.7
			c-22.1-24.3-46.7-38.5-71.2-41.5l-3,10.2c22.5,2.2,45.5,15.3,66.4,38.3c27.5,30.3,48,73.9,57.4,122.7c9.5,48.8,6.9,96.8-7.3,135.2
			c-7.4,20-17.5,36.1-29.5,47.6L922.3,1038.9L922.3,1038.9z"/>
		<path class="st3" d="M1027.9,438.5c0.1,0,9.6-6.3,35.1-13.2l-2.7-10.1c-27.7,7.5-37.9,14.4-38.3,14.7L1027.9,438.5L1027.9,438.5z"
			/>
	</g>
	<g>
		<g>
			<polygon class="st4" points="1112.8,1331.3 1066.6,1283.5 1023.5,1334.2 1015.9,1093.4 1105.2,1093.1 			"/>
			<polygon class="st4" points="1200,1300.4 1206.4,1235 1271.2,1247.4 1129.3,1056.2 1058.1,1108.7 			"/>
			<polygon class="st5" points="1105.1,1175.7 1056.8,1109.7 1059.5,1107.7 1107.7,1173.7 			"/>
			<polygon class="st6" points="1183.9,984.6 1177,1047.7 1143.4,1100.8 1089.7,1133.7 1026.6,1139.7 966.5,1116.9 921.4,1069.6 
				900.2,1006.9 907.2,941.7 940.8,887.2 994.5,854.9 1057.6,850.9 1117.6,875.5 1162.7,923.3 			"/>
			<polygon class="st4" points="1091.3,1133.1 1088.1,1134.2 992.9,855.4 996.1,854.4 			"/>
			<polygon class="st4" points="1028.3,1139.9 1024.9,1139.4 1055.9,850.6 1059.2,851.2 			"/>
			<polygon class="st4" points="968,1117.9 965.2,1116 1116.1,874.5 1119,876.5 			"/>
			<polygon class="st4" points="922.4,1071.2 920.6,1068.2 1161.7,921.7 1163.5,924.7 			"/>
			<polygon class="st4" points="1184.1,986.1 900.5,1008.8 900.1,1005.3 1183.7,982.7 			"/>
			<polygon class="st4" points="1176.5,1049 906.5,943.5 907.6,940.2 1177.6,1045.9 			"/>
			<polygon class="st4" points="1142.4,1101.7 939.4,888.7 941.8,886.3 1144.8,1099.4 			"/>
			<path class="st0" d="M1127.5,968c16.7,48.4-8,99.7-55.2,115.1c-47.2,15.7-98.9-11.1-115.6-60.2c-16.7-49.3,8-101.7,55.2-116.6
				C1059,891.6,1110.8,919.5,1127.5,968L1127.5,968z"/>
			<path class="st7" d="M1120.4,970.2c15.3,44.4-7.4,91.5-50.6,105.6c-43.2,14.3-90.7-10.3-106-55.3c-15.3-45.1,7.4-93.2,50.6-106.9
				C1057.6,900.2,1105.1,925.7,1120.4,970.2L1120.4,970.2z"/>
		</g>
		<path class="st8" d="M1106.9,975.4c12.7,37-5.8,76.1-41.5,87.7c-35.6,11.8-74.8-8.9-87.5-46.2c-12.7-37.5,5.8-77.2,41.5-88.6
			C1054.9,917.1,1094.1,938.3,1106.9,975.4L1106.9,975.4z"/>
		<path class="st7" d="M1070.8,1031.6l-19.4,6.3l-19.2-56.1l-18.5,19.7l-6.2-18.1l14.7-16.9c3.8-4.3,8.2-7.5,13.7-9.2l8.4-2.7
			L1070.8,1031.6L1070.8,1031.6z"/>
	</g>
</g>
</svg>
