<?xml version="1.0" encoding="utf-8"?>
<!-- Generator: Adobe Illustrator 26.3.1, SVG Export Plug-In . SVG Version: 6.00 Build 0)  -->
<svg version="1.1" id="Layer_1" xmlns="http://www.w3.org/2000/svg" xmlns:xlink="http://www.w3.org/1999/xlink" x="0px" y="0px"
	 viewBox="0 0 1944.2 1616.5" style="enable-background:new 0 0 1944.2 1616.5;" xml:space="preserve">
<style type="text/css">
	.st0{opacity:0.4;fill:#FFFFFF;enable-background:new    ;}
	.st1{fill:#FFFFFF;}
	.st2{opacity:0.3;fill:#293657;enable-background:new    ;}
	.st3{fill:#EBECED;}
	.st4{fill:#D9DADB;}
	.st5{fill:#2A3756;}
	.st6{fill:#527BEF;}
	.st7{opacity:0.6;}
	.st8{opacity:0.6;fill:#FFFFFF;enable-background:new    ;}
</style>
<g>
	<g>
		<g>
			<rect x="1489.5" y="17.3" class="st0" width="234.4" height="105.5"/>
			<polygon class="st1" points="1368.1,152.6 1481.7,5.9 1723.7,5.9 1723.7,0 1479.3,0 1361.1,152.6 			"/>
		</g>
		<g>
			<g>
				<path class="st1" d="M1561.6,70.1l28.7,10.5V92l-42-16.2V64.4l42-16.2v11.4L1561.6,70.1z"/>
				<path class="st1" d="M1665.4,75.8l-42,16.2V80.6l28.7-10.5l-28.7-10.6V48.1l42,16.2V75.8z"/>
			</g>
			<polygon class="st1" points="1595.6,94.7 1605.4,94.7 1615.4,45.4 1605.7,45.4 			"/>
		</g>
	</g>
	<path class="st2" d="M1272.3,87.4c-185.6-106.5-451,9.7-742.7,212.7s-653,317.3-488.2,710.5s706.8,641.9,1006.4,536.4
		S1868.5,429.6,1272.3,87.4L1272.3,87.4z"/>
	<g>
		<path class="st3" d="M1866.4,1321.2c22.4,43.9,105.3,245.1,68.5,263.8c-36.8,18.8-151.1-166.2-173.6-210.2
			c-22.4-43.9-17.1-91.6,11.9-106.4C1802.2,1253.6,1844,1277.2,1866.4,1321.2L1866.4,1321.2z"/>
		<polygon class="st4" points="1115.8,1264 1228.5,1425.2 1204.9,1227.3 1124.6,1167.8 		"/>
		<g>
			<path class="st1" d="M1868.6,1273.6c0,189.4-154.8,342.9-345.8,342.9S1177,1463,1177,1273.6s154.8-342.9,345.8-342.9
				S1868.6,1084.2,1868.6,1273.6L1868.6,1273.6z"/>
			<g>
				<path class="st1" d="M1550.5,1207.2c-1.8-0.2-3.7-0.7-5.5-1.4c-33.2-13.7-59.3-39.9-73.4-73.7c-14.1-33.8-14.4-71.2-1.1-105.3
					l52.1-132.7c13.4-34.1,38.9-60.8,71.9-75.2s69.5-14.8,102.7-1.1c11,4.5,16.4,17.4,11.9,28.7c-4.4,11.3-17,16.8-28,12.2
					c-22.6-9.3-47.4-9-69.8,0.8s-39.7,27.9-48.8,51.1l-52.1,132.7c-9.1,23.2-8.8,48.5,0.7,71.5c9.6,22.9,27.2,40.7,49.8,50
					c11,4.5,16.4,17.4,11.9,28.7C1569.3,1202.9,1559.9,1208.3,1550.5,1207.2L1550.5,1207.2z"/>
				<g>
					<path class="st5" d="M1761.8,1168.1c-0.7,85.7-107,153.7-237.3,151.9c-130.3-1.8-235.4-72.8-234.7-158.6
						c0.7-85.7,107-153.7,237.3-151.9C1657.4,1011.4,1762.5,1082.4,1761.8,1168.1L1761.8,1168.1z"/>
					<g>
						<path class="st6" d="M1380.3,1160.1c-0.1,6.8-5.5,12.2-12.1,12.1c-6.6-0.1-12-5.7-11.9-12.5c0.1-6.8,5.5-12.2,12.1-12.1
							C1375.1,1147.7,1380.4,1153.3,1380.3,1160.1z"/>
						<path class="st6" d="M1457.8,1164.7c-0.1,6.8-5.5,12.2-12.1,12.1s-12-5.7-11.9-12.5c0.1-6.8,5.5-12.2,12.1-12.2
							C1452.6,1152.3,1457.9,1157.9,1457.8,1164.7L1457.8,1164.7z"/>
						<path class="st6" d="M1435.6,1136.7c-0.1,6.8-5.5,12.2-12.1,12.1s-12-5.7-11.9-12.5c0.1-6.8,5.5-12.2,12.1-12.1
							C1430.4,1124.3,1435.7,1129.9,1435.6,1136.7L1435.6,1136.7z"/>
						<path class="st6" d="M1405.3,1134.7c-0.1,6.8-5.5,12.2-12.1,12.1c-6.7-0.1-12-5.7-11.9-12.5c0.1-6.8,5.5-12.2,12.1-12.1
							C1400,1122.3,1405.3,1127.9,1405.3,1134.7z"/>
					</g>
					<g>
						<path class="st6" d="M1614.8,1163.4c-0.1,6.8-5.5,12.2-12.1,12.1c-6.6-0.1-12-5.7-11.9-12.5c0.1-6.8,5.5-12.2,12.1-12.1
							C1609.6,1151,1614.9,1156.6,1614.8,1163.4L1614.8,1163.4z"/>
						<path class="st6" d="M1692.3,1168c-0.1,6.8-5.5,12.2-12.1,12.1c-6.6-0.1-12-5.7-11.9-12.5c0.1-6.8,5.5-12.2,12.1-12.1
							S1692.4,1161.2,1692.3,1168z"/>
						<path class="st6" d="M1670.2,1140c-0.1,6.8-5.5,12.2-12.1,12.1c-6.6-0.1-12-5.7-11.9-12.5c0.1-6.8,5.5-12.2,12.1-12.1
							S1670.2,1133.2,1670.2,1140L1670.2,1140z"/>
						<path class="st6" d="M1639.8,1138c-0.1,6.8-5.5,12.2-12.1,12.1c-6.6-0.1-12-5.7-11.9-12.5c0.1-6.8,5.5-12.2,12.1-12.1
							S1639.8,1131.2,1639.8,1138L1639.8,1138z"/>
					</g>
				</g>
			</g>
		</g>
		<path class="st5" d="M1275.4,1433.9c4.3,8.1,0.5,18.6-8.6,23.5l0,0c-9.1,4.9-20,2.3-24.3-5.8c0,0-301-577.7-353.6-675.5
			c-2.5-4.7-0.3-10.9,5-13.7l0,0c5.3-2.8,11.7-1.3,14.2,3.4C960.7,863.6,1275.4,1433.9,1275.4,1433.9L1275.4,1433.9z"/>
		<path class="st3" d="M1160.3,1214c13.2,44.2,3.9,86-20.7,93.4c-24.6,7.3-55.2-22.6-68.4-66.8s-3.9-86,20.7-93.4
			S1147.2,1169.8,1160.3,1214L1160.3,1214z"/>
	</g>
	<g class="st7">
		<g>
			<rect x="648.6" y="1377.4" class="st1" width="167.6" height="11.7"/>
			<rect x="648.6" y="1414.2" class="st1" width="167.6" height="11.7"/>
			<rect x="648.6" y="1451.1" class="st1" width="167.6" height="11.7"/>
			<rect x="648.6" y="1487.9" class="st1" width="105.3" height="11.7"/>
		</g>
	</g>
	<g class="st7">
		<rect x="391.9" y="1232" class="st1" width="429.8" height="33.2"/>
		<rect x="391.9" y="1289.9" class="st1" width="245" height="23.4"/>
	</g>
	<g class="st7">
		<g>
			<path class="st1" d="M501.6,1494.4c-13.6,0-24.7-11.1-24.7-24.7c0-13.6,11.1-24.7,24.7-24.7s24.7,11.1,24.7,24.7
				C526.3,1483.3,515.2,1494.4,501.6,1494.4z M501.6,1450.4c-10.7,0-19.4,8.7-19.4,19.4c0,10.7,8.7,19.4,19.4,19.4
				s19.4-8.7,19.4-19.4C521,1459.1,512.3,1450.4,501.6,1450.4L501.6,1450.4z"/>
			<path class="st1" d="M501.6,1522.5c-28.9,0-52.5-23.7-52.5-52.8s23.5-52.8,52.5-52.8c29,0,52.5,23.7,52.5,52.8
				S530.6,1522.5,501.6,1522.5z M501.6,1422.3c-26,0-47.2,21.3-47.2,47.5c0,26.2,21.2,47.5,47.2,47.5c26,0,47.2-21.3,47.2-47.5
				C548.8,1443.6,527.6,1422.3,501.6,1422.3z"/>
			<path class="st1" d="M501.6,1546.7c-42.4,0-76.9-34.5-76.9-76.9s34.5-76.9,76.9-76.9s76.9,34.5,76.9,76.9
				S544,1546.7,501.6,1546.7L501.6,1546.7z M501.6,1398.1c-39.5,0-71.6,32.1-71.6,71.7c0,39.6,32.1,71.6,71.6,71.6
				s71.6-32.1,71.6-71.6S541.1,1398.1,501.6,1398.1z"/>
			<path class="st1" d="M501.6,1576.5c-58.9,0-106.8-47.9-106.8-106.8c0-58.9,47.9-106.8,106.8-106.8s106.8,47.9,106.8,106.8
				C608.4,1528.6,560.5,1576.5,501.6,1576.5z M501.6,1368.3c-56,0-101.5,45.5-101.5,101.5s45.6,101.5,101.5,101.5
				s101.5-45.6,101.5-101.5S557.6,1368.3,501.6,1368.3z"/>
		</g>
		<g>
			<path class="st1" d="M501.6,1500.6c-17,0-30.8-13.8-30.8-30.8h17.6c0,7.3,5.9,13.2,13.2,13.2L501.6,1500.6L501.6,1500.6z"/>
			<path class="st1" d="M554.8,1494.6l-16-7.4c2.5-5.5,3.8-11.4,3.8-17.5c0-22.8-18.4-41.3-41-41.3c-6.9,0-13.6,1.7-19.6,5
				l-8.5-15.4c8.5-4.7,18.3-7.2,28.1-7.2c32.3,0,58.6,26.4,58.6,58.9C560.2,1478.4,558.4,1486.8,554.8,1494.6L554.8,1494.6z"/>
			<path class="st1" d="M444,1438.6l-15.5-8.4c14.5-26.9,42.6-43.6,73.1-43.6c24,0,46.9,10.4,62.6,28.5l-13.2,11.6
				c-12.5-14.3-30.5-22.5-49.4-22.5C477.6,1404.3,455.5,1417.4,444,1438.6L444,1438.6z"/>
			<path class="st1" d="M501.6,1582.7v-17.6c52.6,0,95.4-42.8,95.4-95.4c0-52.6-42.8-95.4-95.4-95.4v-17.6
				c62.3,0,112.9,50.7,112.9,112.9C614.5,1531.8,563.9,1582.7,501.6,1582.7L501.6,1582.7z"/>
		</g>
	</g>
	<g>
		<polygon class="st1" points="412.4,375.5 324.4,275.6 76.1,275.6 76.1,281.6 321.9,281.6 404.4,375.5 		"/>
		<rect x="76.1" y="152.3" class="st0" width="241.9" height="108.8"/>
		<g>
			<rect x="103.5" y="173" class="st1" width="85.9" height="9.1"/>
			<rect x="174.6" y="191.1" class="st8" width="56.9" height="9.1"/>
			<rect x="131.5" y="191.1" class="st8" width="38.8" height="9.1"/>
			<rect x="131.5" y="209.2" class="st8" width="128" height="9.1"/>
			<rect x="131.5" y="227.3" class="st8" width="67.8" height="9.1"/>
		</g>
	</g>
</g>
</svg>
